{
  "source": "C:\\Users\\Peter\\Desktop\\stuff\\MIUN\\quantitative_research\\video_compression\\videos\\UVG\\Bosphorus_1920x1080_120fps_420_8bit_YUV.y4m",
  "output": "C:\\Users\\Peter\\Desktop\\stuff\\MIUN\\quantitative_research\\video_compression\\compressed_videos\\UVG\\av1\\12\\Bosphorus_1920x1080_120fps_420_8bit_YUV_av1.mkv",
  "codec": "av1",
  "ok": "[yuv4mpegpipe @ 000001f4ce3d54c0] Stream #0: not enough frames to estimate rate; consider increasing probesize\nInput #0, yuv4mpegpipe, from 'C:\\Users\\Peter\\Desktop\\stuff\\MIUN\\quantitative_research\\video_compression\\videos\\UVG\\Bosphorus_1920x1080_120fps_420_8bit_YUV.y4m':\n  Duration: 00:00:05.00, start: 0.000000, bitrate: 2985989 kb/s\n  Stream #0:0: Video: rawvideo (I420 / 0x30323449), yuv420p(progressive), 1920x1080, 120 fps, 120 tbr, 120 tbn\n[out#0/matroska @ 000001f4ce3d93c0] Codec AVOption b:a (set bitrate (in bits/s)) has not been used for any stream. The most likely reason is either wrong type (e.g. a video option with no video streams) or that it is a private option of some decoder which was not actually used for any stream.\nStream mapping:\n  Stream #0:0 -> #0:0 (rawvideo (native) -> av1 (libsvtav1))\nPress [q] to stop, [?] for help\nSvt[info]: -------------------------------------------\nSvt[info]: SVT [version]:\tSVT-AV1 Encoder Lib v3.1.0-19-g6ecfe8ec\nSvt[info]: SVT [build]  :\tGCC 15.2.0\t 64 bit\nSvt[info]: LIB Build date: Aug 17 2025 11:37:13\nSvt[info]: -------------------------------------------\n[libsvtav1 @ 000001f4ce3dc500] Specified chroma sample location center is unsupported on the AV1 bit stream level. Usage of a container that allows passing this information - such as Matroska - is recommended.\nSvt[info]: Level of Parallelism: 5\nSvt[info]: Number of PPCS 93\nSvt[info]: [asm level on system : up to avx2]\nSvt[info]: [asm level selected : up to avx2]\nSvt[info]: -------------------------------------------\nSvt[info]: SVT [config]: main profile\ttier (auto)\tlevel (auto)\nSvt[info]: SVT [config]: width / height / fps numerator / fps denominator \t\t: 1920 / 1080 / 120 / 1\nSvt[info]: SVT [config]: bit-depth / color format \t\t\t\t\t: 8 / YUV420\nSvt[info]: SVT [config]: preset / tune / pred struct \t\t\t\t\t: 4 / PSNR / random access\nSvt[info]: SVT [config]: gop size / mini-gop size / key-frame type \t\t\t: 641 / 16 / key frame\nSvt[info]: SVT [config]: BRC mode / target bitrate (kbps)\t\t\t\t: VBR / 12000 \nSvt[info]: SVT [config]: AQ mode / Variance Boost \t\t\t\t\t: 2 / 0\nSvt[info]: SVT [config]: sharpness / luminance-based QP bias \t\t\t\t: 0 / 0\nSvt[info]: SVT [config]: QP scale compress strength \t\t\t\t\t: 0\nSvt[info]: -------------------------------------------\nOutput #0, matroska, to 'C:\\Users\\Peter\\Desktop\\stuff\\MIUN\\quantitative_research\\video_compression\\compressed_videos\\UVG\\av1\\12\\Bosphorus_1920x1080_120fps_420_8bit_YUV_av1.mkv':\n  Metadata:\n    encoder         : Lavf62.3.100\n  Stream #0:0: Video: av1 (AV01 / 0x31305641), yuv420p(tv, progressive), 1920x1080, q=2-31, 12000 kb/s, 120 fps, 1k tbn\n    Metadata:\n      encoder         : Lavc62.11.100 libsvtav1\n    Side data:\n      cpb: bitrate max/min/avg: 0/0/12000000 buffer size: 12000000 vbv_delay: N/A\nframe=    0 fps=0.0 q=0.0 size=       0KiB time=N/A bitrate=N/A speed=N/A elapsed=0:00:01.59    \nframe=    0 fps=0.0 q=0.0 size=       0KiB time=N/A bitrate=N/A speed=N/A elapsed=0:00:02.12    \nframe=    0 fps=0.0 q=0.0 size=       0KiB time=N/A bitrate=N/A speed=N/A elapsed=0:00:02.67    \nframe=    0 fps=0.0 q=0.0 size=       0KiB time=N/A bitrate=N/A speed=N/A elapsed=0:00:03.19    \nframe=    0 fps=0.0 q=0.0 size=       0KiB time=N/A bitrate=N/A speed=N/A elapsed=0:00:03.74    \nframe=    0 fps=0.0 q=0.0 size=       0KiB time=N/A bitrate=N/A speed=N/A elapsed=0:00:04.33    \nframe=    0 fps=0.0 q=0.0 size=       0KiB time=N/A bitrate=N/A speed=N/A elapsed=0:00:04.88    \nframe=    0 fps=0.0 q=0.0 size=       0KiB time=N/A bitrate=N/A speed=N/A elapsed=0:00:05.44    \nframe=    0 fps=0.0 q=0.0 size=       0KiB time=N/A bitrate=N/A speed=N/A elapsed=0:00:06.00    \nframe=    0 fps=0.0 q=0.0 size=       0KiB time=N/A bitrate=N/A speed=N/A elapsed=0:00:06.55    \nframe=    0 fps=0.0 q=0.0 size=       0KiB time=N/A bitrate=N/A speed=N/A elapsed=0:00:07.13    \nframe=    0 fps=0.0 q=0.0 size=       0KiB time=N/A bitrate=N/A speed=N/A elapsed=0:00:07.70    \nframe=    0 fps=0.0 q=0.0 size=       0KiB time=N/A bitrate=N/A speed=N/A elapsed=0:00:08.27    \nframe=    0 fps=0.0 q=0.0 size=       0KiB time=N/A bitrate=N/A speed=N/A elapsed=0:00:08.83    \nframe=    0 fps=0.0 q=0.0 size=       0KiB time=N/A bitrate=N/A speed=N/A elapsed=0:00:09.40    \nframe=    0 fps=0.0 q=0.0 size=       0KiB time=N/A bitrate=N/A speed=N/A elapsed=0:00:10.01    \nframe=    0 fps=0.0 q=0.0 size=       0KiB time=N/A bitrate=N/A speed=N/A elapsed=0:00:10.59    \nframe=    0 fps=0.0 q=0.0 size=       0KiB time=N/A bitrate=N/A speed=N/A elapsed=0:00:11.14    \nframe=    0 fps=0.0 q=0.0 size=       0KiB time=N/A bitrate=N/A speed=N/A elapsed=0:00:11.70    \nframe=    0 fps=0.0 q=0.0 size=       0KiB time=N/A bitrate=N/A speed=N/A elapsed=0:00:12.26    \nframe=    0 fps=0.0 q=0.0 size=       0KiB time=N/A bitrate=N/A speed=N/A elapsed=0:00:12.81    \nframe=    0 fps=0.0 q=0.0 size=       0KiB time=N/A bitrate=N/A speed=N/A elapsed=0:00:13.33    \nframe=    0 fps=0.0 q=0.0 size=       0KiB time=N/A bitrate=N/A speed=N/A elapsed=0:00:13.87    \nframe=    0 fps=0.0 q=0.0 size=       0KiB time=N/A bitrate=N/A speed=N/A elapsed=0:00:14.41    \nframe=    0 fps=0.0 q=0.0 size=       0KiB time=N/A bitrate=N/A speed=N/A elapsed=0:00:14.94    \nframe=    0 fps=0.0 q=0.0 size=       0KiB time=N/A bitrate=N/A speed=N/A elapsed=0:00:15.48    \nframe=    0 fps=0.0 q=0.0 size=       0KiB time=N/A bitrate=N/A speed=N/A elapsed=0:00:16.02    \nframe=    0 fps=0.0 q=0.0 size=       0KiB time=N/A bitrate=N/A speed=N/A elapsed=0:00:16.57    \nframe=    0 fps=0.0 q=0.0 size=       0KiB time=N/A bitrate=N/A speed=N/A elapsed=0:00:17.10    \nframe=    0 fps=0.0 q=0.0 size=       0KiB time=N/A bitrate=N/A speed=N/A elapsed=0:00:17.63    \nframe=    0 fps=0.0 q=0.0 size=       0KiB time=N/A bitrate=N/A speed=N/A elapsed=0:00:18.18    \nframe=    0 fps=0.0 q=0.0 size=       0KiB time=N/A bitrate=N/A speed=N/A elapsed=0:00:18.72    \nframe=    0 fps=0.0 q=0.0 size=       0KiB time=N/A bitrate=N/A speed=N/A elapsed=0:00:19.28    \nframe=    0 fps=0.0 q=0.0 size=       0KiB time=N/A bitrate=N/A speed=N/A elapsed=0:00:19.83    \nframe=    0 fps=0.0 q=0.0 size=       0KiB time=N/A bitrate=N/A speed=N/A elapsed=0:00:20.37    \nframe=    0 fps=0.0 q=0.0 size=       0KiB time=N/A bitrate=N/A speed=N/A elapsed=0:00:20.92    \nframe=    0 fps=0.0 q=0.0 size=       0KiB time=N/A bitrate=N/A speed=N/A elapsed=0:00:21.47    \nframe=    0 fps=0.0 q=0.0 size=       0KiB time=N/A bitrate=N/A speed=N/A elapsed=0:00:22.01    \nframe=    0 fps=0.0 q=0.0 size=       0KiB time=N/A bitrate=N/A speed=N/A elapsed=0:00:22.56    \nframe=    0 fps=0.0 q=0.0 size=       0KiB time=N/A bitrate=N/A speed=N/A elapsed=0:00:23.12    \nframe=    0 fps=0.0 q=0.0 size=       0KiB time=N/A bitrate=N/A speed=N/A elapsed=0:00:23.68    \nframe=    1 fps=0.0 q=6.0 size=       1KiB time=00:00:00.00 bitrate=N/A speed=   0x elapsed=0:00:24.24    \nframe=    1 fps=0.0 q=6.0 size=       1KiB time=00:00:00.00 bitrate=N/A speed=   0x elapsed=0:00:24.79    \nframe=    1 fps=0.0 q=6.0 size=       1KiB time=00:00:00.00 bitrate=N/A speed=   0x elapsed=0:00:25.33    \nframe=    1 fps=0.0 q=6.0 size=       1KiB time=00:00:00.00 bitrate=N/A speed=   0x elapsed=0:00:25.88    \nframe=    1 fps=0.0 q=6.0 size=       1KiB time=00:00:00.00 bitrate=N/A speed=   0x elapsed=0:00:26.43    \nframe=    1 fps=0.0 q=6.0 size=       1KiB time=00:00:00.00 bitrate=N/A speed=   0x elapsed=0:00:26.98    \nframe=    1 fps=0.0 q=6.0 size=       1KiB time=00:00:00.00 bitrate=N/A speed=   0x elapsed=0:00:27.52    \nframe=    1 fps=0.0 q=6.0 size=       1KiB time=00:00:00.00 bitrate=N/A speed=   0x elapsed=0:00:28.07    \nframe=    1 fps=0.0 q=6.0 size=       1KiB time=00:00:00.00 bitrate=N/A speed=   0x elapsed=0:00:28.62    \nframe=    1 fps=0.0 q=6.0 size=       1KiB time=00:00:00.00 bitrate=N/A speed=   0x elapsed=0:00:29.19    \nframe=    1 fps=0.0 q=6.0 size=       1KiB time=00:00:00.00 bitrate=N/A speed=   0x elapsed=0:00:29.73    \nframe=    1 fps=0.0 q=6.0 size=       1KiB time=00:00:00.00 bitrate=N/A speed=   0x elapsed=0:00:30.28    \nframe=    1 fps=0.0 q=6.0 size=       1KiB time=00:00:00.00 bitrate=N/A speed=   0x elapsed=0:00:30.82    \nframe=    1 fps=0.0 q=6.0 size=       1KiB time=00:00:00.00 bitrate=N/A speed=   0x elapsed=0:00:31.40    \nframe=    1 fps=0.0 q=6.0 size=       1KiB time=00:00:00.00 bitrate=N/A speed=   0x elapsed=0:00:32.00    \nframe=    1 fps=0.0 q=6.0 size=       1KiB time=00:00:00.00 bitrate=N/A speed=   0x elapsed=0:00:32.58    \nframe=    3 fps=0.1 q=28.0 size=       1KiB time=00:00:00.01 bitrate= 268.8kbits/s speed=0.000503x elapsed=0:00:33.16    \nframe=    3 fps=0.1 q=28.0 size=       1KiB time=00:00:00.01 bitrate= 268.8kbits/s speed=0.000494x elapsed=0:00:33.72    \nframe=    4 fps=0.1 q=31.0 size=       1KiB time=00:00:00.02 bitrate= 179.2kbits/s speed=0.000729x elapsed=0:00:34.29    \nframe=    5 fps=0.1 q=26.0 size=       1KiB time=00:00:00.03 bitrate= 134.4kbits/s speed=0.000956x elapsed=0:00:34.87    \nframe=    7 fps=0.2 q=27.0 size=       1KiB time=00:00:00.05 bitrate=  89.6kbits/s speed=0.00141x elapsed=0:00:35.44    \nframe=    7 fps=0.2 q=27.0 size=       1KiB time=00:00:00.05 bitrate=  89.6kbits/s speed=0.00139x elapsed=0:00:36.01    \nframe=    7 fps=0.2 q=27.0 size=       1KiB time=00:00:00.05 bitrate=  89.6kbits/s speed=0.00137x elapsed=0:00:36.57    \nframe=    8 fps=0.2 q=27.0 size=       1KiB time=00:00:00.05 bitrate=  76.8kbits/s speed=0.00157x elapsed=0:00:37.14    \nframe=    8 fps=0.2 q=27.0 size=       1KiB time=00:00:00.05 bitrate=  76.8kbits/s speed=0.00154x elapsed=0:00:37.76    \nframe=    9 fps=0.2 q=22.0 size=       1KiB time=00:00:00.06 bitrate=  67.2kbits/s speed=0.00174x elapsed=0:00:38.33    \nframe=   10 fps=0.3 q=25.0 size=       1KiB time=00:00:00.07 bitrate=  59.7kbits/s speed=0.00193x elapsed=0:00:38.91    \nframe=   12 fps=0.3 q=25.0 size=       1KiB time=00:00:00.09 bitrate=  48.9kbits/s speed=0.00232x elapsed=0:00:39.47    \nframe=   12 fps=0.3 q=25.0 size=       1KiB time=00:00:00.09 bitrate=  48.9kbits/s speed=0.00229x elapsed=0:00:40.02    \nframe=   12 fps=0.3 q=25.0 size=       1KiB time=00:00:00.09 bitrate=  48.9kbits/s speed=0.00226x elapsed=0:00:40.59    \nframe=   13 fps=0.3 q=23.0 size=       1KiB time=00:00:00.09 bitrate=  48.9kbits/s speed=0.00223x elapsed=0:00:41.18    \nframe=   13 fps=0.3 q=23.0 size=       1KiB time=00:00:00.10 bitrate=  44.8kbits/s speed=0.0024x elapsed=0:00:41.75    \nframe=   14 fps=0.3 q=23.0 size=       1KiB time=00:00:00.10 bitrate=  41.4kbits/s speed=0.00256x elapsed=0:00:42.31    \nframe=   16 fps=0.4 q=23.0 size=       1KiB time=00:00:00.12 bitrate=  35.8kbits/s speed=0.00291x elapsed=0:00:42.88    \nframe=   16 fps=0.4 q=23.0 size=       1KiB time=00:00:00.12 bitrate=  35.8kbits/s speed=0.00288x elapsed=0:00:43.45    \nframe=   16 fps=0.4 q=23.0 size=       1KiB time=00:00:00.12 bitrate=  35.8kbits/s speed=0.00284x elapsed=0:00:44.02    \nframe=   16 fps=0.4 q=23.0 size=       1KiB time=00:00:00.12 bitrate=  35.8kbits/s speed=0.0028x elapsed=0:00:44.60    \nframe=   16 fps=0.4 q=23.0 size=       1KiB time=00:00:00.12 bitrate=  35.8kbits/s speed=0.00277x elapsed=0:00:45.17    \nframe=   17 fps=0.4 q=11.0 size=       1KiB time=00:00:00.13 bitrate=  33.6kbits/s speed=0.00291x elapsed=0:00:45.74    \nframe=   18 fps=0.4 q=22.0 size=       1KiB time=00:00:00.14 bitrate=  31.6kbits/s speed=0.00306x elapsed=0:00:46.32    \nframe=   19 fps=0.4 q=23.0 size=       1KiB time=00:00:00.15 bitrate=  29.9kbits/s speed=0.0032x elapsed=0:00:46.88    \nframe=   20 fps=0.4 q=22.0 size=       1KiB time=00:00:00.15 bitrate=  28.3kbits/s speed=0.00334x elapsed=0:00:47.43    \nframe=   20 fps=0.4 q=22.0 size=       1KiB time=00:00:00.15 bitrate=  28.3kbits/s speed=0.0033x elapsed=0:00:47.97    \nframe=   20 fps=0.4 q=22.0 size=       1KiB time=00:00:00.15 bitrate=  28.3kbits/s speed=0.00326x elapsed=0:00:48.53    \nframe=   20 fps=0.4 q=22.0 size=       1KiB time=00:00:00.15 bitrate=  28.3kbits/s speed=0.00322x elapsed=0:00:49.10    \nframe=   21 fps=0.4 q=25.0 size=       1KiB time=00:00:00.16 bitrate=  26.9kbits/s speed=0.00336x elapsed=0:00:49.67    \nframe=   21 fps=0.4 q=25.0 size=       1KiB time=00:00:00.16 bitrate=  26.9kbits/s speed=0.00332x elapsed=0:00:50.24    \nframe=   22 fps=0.4 q=19.0 size=       1KiB time=00:00:00.17 bitrate=  25.6kbits/s speed=0.00345x elapsed=0:00:50.78    \nframe=   23 fps=0.4 q=19.0 size=       1KiB time=00:00:00.18 bitrate=  24.4kbits/s speed=0.00357x elapsed=0:00:51.35    \nframe=   23 fps=0.4 q=19.0 size=       1KiB time=00:00:00.18 bitrate=  24.4kbits/s speed=0.00353x elapsed=0:00:51.92    \nframe=   23 fps=0.4 q=19.0 size=       1KiB time=00:00:00.18 bitrate=  24.4kbits/s speed=0.00349x elapsed=0:00:52.47    \nframe=   24 fps=0.5 q=19.0 size=       1KiB time=00:00:00.19 bitrate=  23.4kbits/s speed=0.00361x elapsed=0:00:53.03    \nframe=   24 fps=0.4 q=19.0 size=       1KiB time=00:00:00.19 bitrate=  23.4kbits/s speed=0.00358x elapsed=0:00:53.59    \nframe=   24 fps=0.4 q=19.0 size=       1KiB time=00:00:00.19 bitrate=  23.4kbits/s speed=0.00354x elapsed=0:00:54.16    \nframe=   25 fps=0.5 q=22.0 size=       1KiB time=00:00:00.20 bitrate=  22.4kbits/s speed=0.00366x elapsed=0:00:54.71    \nframe=   25 fps=0.5 q=22.0 size=       1KiB time=00:00:00.20 bitrate=  22.4kbits/s speed=0.00362x elapsed=0:00:55.28    \nframe=   26 fps=0.5 q=20.0 size=       1KiB time=00:00:00.20 bitrate=  21.5kbits/s speed=0.00373x elapsed=0:00:55.85    \nframe=   27 fps=0.5 q=24.0 size=       1KiB time=00:00:00.21 bitrate=  20.7kbits/s speed=0.00384x elapsed=0:00:56.42    \nframe=   27 fps=0.5 q=24.0 size=       1KiB time=00:00:00.21 bitrate=  20.7kbits/s speed=0.0038x elapsed=0:00:56.98    \nframe=   27 fps=0.5 q=24.0 size=       1KiB time=00:00:00.21 bitrate=  20.7kbits/s speed=0.00376x elapsed=0:00:57.54    \nframe=   29 fps=0.5 q=22.0 size=       1KiB time=00:00:00.22 bitrate=  19.9kbits/s speed=0.00386x elapsed=0:00:58.35    \nframe=   31 fps=0.5 q=22.0 size=       1KiB time=00:00:00.25 bitrate=  17.9kbits/s speed=0.0042x elapsed=0:00:59.50    \nframe=   32 fps=0.5 q=22.0 size=       1KiB time=00:00:00.25 bitrate=  17.3kbits/s speed=0.00428x elapsed=0:01:00.35    \nframe=   33 fps=0.5 q=10.0 size=       1KiB time=00:00:00.26 bitrate=  16.8kbits/s speed=0.00436x elapsed=0:01:01.14    \nframe=   35 fps=0.6 q=21.0 size=       1KiB time=00:00:00.28 bitrate=  15.8kbits/s speed=0.00457x elapsed=0:01:02.05    \nframe=   36 fps=0.6 q=17.0 size=       1KiB time=00:00:00.29 bitrate=  15.4kbits/s speed=0.00463x elapsed=0:01:02.99    \nframe=   38 fps=0.6 q=16.0 size=       1KiB time=00:00:00.30 bitrate=  14.9kbits/s speed=0.0047x elapsed=0:01:03.89    \nframe=   38 fps=0.6 q=16.0 size=       1KiB time=00:00:00.30 bitrate=  14.5kbits/s speed=0.00477x elapsed=0:01:04.57    \nframe=   39 fps=0.6 q=21.0 size=       1KiB time=00:00:00.31 bitrate=  14.1kbits/s speed=0.00484x elapsed=0:01:05.42    \nframe=   40 fps=0.6 q=17.0 size=       1KiB time=00:00:00.31 bitrate=  14.1kbits/s speed=0.00478x elapsed=0:01:06.28    \nframe=   42 fps=0.6 q=16.0 size=       1KiB time=00:00:00.34 bitrate=  13.1kbits/s speed=0.00509x elapsed=0:01:07.15    \nframe=   43 fps=0.6 q=23.0 size=       1KiB time=00:00:00.35 bitrate=  12.8kbits/s speed=0.00515x elapsed=0:01:08.02    \nframe=   44 fps=0.6 q=19.0 size=       1KiB time=00:00:00.35 bitrate=  12.5kbits/s speed=0.00519x elapsed=0:01:08.98    \nframe=   47 fps=0.7 q=22.0 size=       1KiB time=00:00:00.36 bitrate=  12.2kbits/s speed=0.00525x elapsed=0:01:09.89    \nframe=   47 fps=0.7 q=22.0 size=       1KiB time=00:00:00.38 bitrate=  11.7kbits/s speed=0.00542x elapsed=0:01:10.68    \nframe=   49 fps=0.7 q=7.0 size=       1KiB time=00:00:00.40 bitrate=  11.2kbits/s speed=0.0056x elapsed=0:01:11.38    \nframe=   50 fps=0.7 q=20.0 size=       1KiB time=00:00:00.40 bitrate=  11.0kbits/s speed=0.00567x elapsed=0:01:12.07    \nframe=   51 fps=0.7 q=20.0 size=       1KiB time=00:00:00.41 bitrate=  10.8kbits/s speed=0.00572x elapsed=0:01:12.87    \nframe=   51 fps=0.7 q=20.0 size=       1KiB time=00:00:00.41 bitrate=  10.8kbits/s speed=0.00566x elapsed=0:01:13.60    \nframe=   53 fps=0.7 q=24.0 size=       1KiB time=00:00:00.43 bitrate=  10.3kbits/s speed=0.00585x elapsed=0:01:14.13    \nframe=   53 fps=0.7 q=24.0 size=       1KiB time=00:00:00.43 bitrate=  10.3kbits/s speed=0.00581x elapsed=0:01:14.63    \nframe=   54 fps=0.7 q=31.0 size=       1KiB time=00:00:00.44 bitrate=  10.1kbits/s speed=0.00588x elapsed=0:01:15.15    \nframe=   54 fps=0.7 q=31.0 size=       1KiB time=00:00:00.44 bitrate=  10.1kbits/s speed=0.00584x elapsed=0:01:15.66    \nframe=   55 fps=0.7 q=21.0 size=       1KiB time=00:00:00.45 bitrate=  10.0kbits/s speed=0.00591x elapsed=0:01:16.18    \nframe=   55 fps=0.7 q=21.0 size=       1KiB time=00:00:00.45 bitrate=  10.0kbits/s speed=0.00587x elapsed=0:01:16.70    \nframe=   58 fps=0.8 q=28.0 size=       1KiB time=00:00:00.47 bitrate=   9.4kbits/s speed=0.00615x elapsed=0:01:17.22    \nframe=   58 fps=0.7 q=28.0 size=       1KiB time=00:00:00.47 bitrate=   9.4kbits/s speed=0.00611x elapsed=0:01:17.73    \nframe=   59 fps=0.8 q=21.0 size=       1KiB time=00:00:00.48 bitrate=   9.3kbits/s speed=0.00618x elapsed=0:01:18.25    \nframe=   59 fps=0.7 q=21.0 size=       1KiB time=00:00:00.48 bitrate=   9.3kbits/s speed=0.00614x elapsed=0:01:18.76    \nframe=   61 fps=0.8 q=22.0 size=       1KiB time=00:00:00.50 bitrate=   9.0kbits/s speed=0.00631x elapsed=0:01:19.28    \nframe=   62 fps=0.8 q=27.0 size=       1KiB time=00:00:00.50 bitrate=   8.8kbits/s speed=0.00637x elapsed=0:01:19.79    \nframe=   63 fps=0.8 q=22.0 size=       1KiB time=00:00:00.51 bitrate=   8.7kbits/s speed=0.00643x elapsed=0:01:20.31    \nframe=   63 fps=0.8 q=22.0 size=       1KiB time=00:00:00.51 bitrate=   8.7kbits/s speed=0.00639x elapsed=0:01:20.83    \nframe=   65 fps=0.8 q=6.0 size=       1KiB time=00:00:00.53 bitrate=   8.4kbits/s speed=0.00656x elapsed=0:01:21.34    \nframe=   66 fps=0.8 q=20.0 size=       1KiB time=00:00:00.54 bitrate=   8.3kbits/s speed=0.00662x elapsed=0:01:21.85    \nframe=   67 fps=0.8 q=20.0 size=       1KiB time=00:00:00.55 bitrate=   8.1kbits/s speed=0.00668x elapsed=0:01:22.38    \nframe=   67 fps=0.8 q=20.0 size=       1KiB time=00:00:00.55 bitrate=   8.1kbits/s speed=0.00664x elapsed=0:01:22.88    \nframe=   69 fps=0.8 q=24.0 size=       1KiB time=00:00:00.56 bitrate=   7.9kbits/s speed=0.00679x elapsed=0:01:23.40    \nframe=   70 fps=0.8 q=20.0 size=       1KiB time=00:00:00.57 bitrate=   7.8kbits/s speed=0.00685x elapsed=0:01:23.92    \nframe=   71 fps=0.8 q=20.0 size=       1KiB time=00:00:00.58 bitrate=   7.7kbits/s speed=0.00691x elapsed=0:01:24.43    \nframe=   72 fps=0.8 q=15.0 size=       1KiB time=00:00:00.59 bitrate=   7.6kbits/s speed=0.00696x elapsed=0:01:24.95    \nframe=   73 fps=0.9 q=20.0 size=       1KiB time=00:00:00.60 bitrate=   7.5kbits/s speed=0.00702x elapsed=0:01:25.47    \nframe=   75 fps=0.9 q=22.0 size=       1KiB time=00:00:00.61 bitrate=   7.3kbits/s speed=0.00717x elapsed=0:01:25.98    \nframe=   75 fps=0.9 q=22.0 size=       1KiB time=00:00:00.61 bitrate=   7.3kbits/s speed=0.00713x elapsed=0:01:26.50    \nframe=   76 fps=0.9 q=17.0 size=       1KiB time=00:00:00.62 bitrate=   7.2kbits/s speed=0.00718x elapsed=0:01:27.01    \nframe=   76 fps=0.9 q=17.0 size=       1KiB time=00:00:00.62 bitrate=   7.2kbits/s speed=0.00714x elapsed=0:01:27.53    \nframe=   78 fps=0.9 q=17.0 size=       1KiB time=00:00:00.64 bitrate=   7.0kbits/s speed=0.00729x elapsed=0:01:28.04    \nframe=   79 fps=0.9 q=22.0 size=       1KiB time=00:00:00.65 bitrate=   6.9kbits/s speed=0.00734x elapsed=0:01:28.56    \nframe=   80 fps=0.9 q=20.0 size=       1KiB time=00:00:00.65 bitrate=   6.8kbits/s speed=0.00739x elapsed=0:01:29.08    \nframe=   81 fps=0.9 q=6.0 size=       1KiB time=00:00:00.66 bitrate=   6.7kbits/s speed=0.00744x elapsed=0:01:29.59    \nframe=   83 fps=0.9 q=20.0 size=       1KiB time=00:00:00.68 bitrate=   6.6kbits/s speed=0.00758x elapsed=0:01:30.10    \nframe=   84 fps=0.9 q=16.0 size=       1KiB time=00:00:00.69 bitrate=   6.5kbits/s speed=0.00763x elapsed=0:01:30.63    \nframe=   85 fps=0.9 q=24.0 size=       1KiB time=00:00:00.70 bitrate=   6.4kbits/s speed=0.00768x elapsed=0:01:31.15    \nframe=   86 fps=0.9 q=16.0 size=       1KiB time=00:00:00.70 bitrate=   6.3kbits/s speed=0.00773x elapsed=0:01:31.66    \nframe=   87 fps=0.9 q=20.0 size=       1KiB time=00:00:00.71 bitrate=   6.3kbits/s speed=0.00777x elapsed=0:01:32.19    \nframe=   87 fps=0.9 q=20.0 size=       1KiB time=00:00:00.71 bitrate=   6.3kbits/s speed=0.00773x elapsed=0:01:32.71    \nframe=   88 fps=0.9 q=16.0 size=       1KiB time=00:00:00.72 bitrate=   6.2kbits/s speed=0.00778x elapsed=0:01:33.22    \nframe=   89 fps=0.9 q=18.0 size=       1KiB time=00:00:00.73 bitrate=   6.1kbits/s speed=0.00782x elapsed=0:01:33.72    \nframe=   90 fps=1.0 q=17.0 size=       1KiB time=00:00:00.74 bitrate=   6.0kbits/s speed=0.00787x elapsed=0:01:34.25    \nframe=   91 fps=1.0 q=21.0 size=       1KiB time=00:00:00.75 bitrate=   6.0kbits/s speed=0.00791x elapsed=0:01:34.77    \nframe=   92 fps=1.0 q=17.0 size=       1KiB time=00:00:00.75 bitrate=   5.9kbits/s speed=0.00796x elapsed=0:01:35.29    \nframe=   92 fps=1.0 q=17.0 size=       1KiB time=00:00:00.75 bitrate=   5.9kbits/s speed=0.00792x elapsed=0:01:35.80    \nframe=   94 fps=1.0 q=17.0 size=       1KiB time=00:00:00.77 bitrate=   5.8kbits/s speed=0.00805x elapsed=0:01:36.32    \nframe=   95 fps=1.0 q=21.0 size=       1KiB time=00:00:00.78 bitrate=   5.7kbits/s speed=0.00809x elapsed=0:01:36.82    \nframe=   97 fps=1.0 q=6.0 size=       1KiB time=00:00:00.80 bitrate=   5.6kbits/s speed=0.00822x elapsed=0:01:37.34    \nframe=   99 fps=1.0 q=21.0 size=       1KiB time=00:00:00.81 bitrate=   5.5kbits/s speed=0.00835x elapsed=0:01:37.86    \nframe=   99 fps=1.0 q=21.0 size=       1KiB time=00:00:00.81 bitrate=   5.5kbits/s speed=0.0083x elapsed=0:01:38.37    \nframe=  100 fps=1.0 q=17.0 size=       1KiB time=00:00:00.82 bitrate=   5.4kbits/s speed=0.00834x elapsed=0:01:38.88    \nframe=  101 fps=1.0 q=24.0 size=       1KiB time=00:00:00.83 bitrate=   5.4kbits/s speed=0.00838x elapsed=0:01:39.40    \nframe=  102 fps=1.0 q=17.0 size=       1KiB time=00:00:00.84 bitrate=   5.3kbits/s speed=0.00842x elapsed=0:01:39.91    \nframe=  103 fps=1.0 q=21.0 size=       1KiB time=00:00:00.85 bitrate=   5.3kbits/s speed=0.00846x elapsed=0:01:40.44    \nframe=  103 fps=1.0 q=21.0 size=       1KiB time=00:00:00.85 bitrate=   5.3kbits/s speed=0.00842x elapsed=0:01:40.95    \nframe=  105 fps=1.0 q=18.0 size=       1KiB time=00:00:00.86 bitrate=   5.2kbits/s speed=0.00854x elapsed=0:01:41.47    \nframe=  106 fps=1.0 q=17.0 size=       1KiB time=00:00:00.87 bitrate=   5.1kbits/s speed=0.00858x elapsed=0:01:41.98    \nframe=  107 fps=1.0 q=21.0 size=       1KiB time=00:00:00.88 bitrate=   5.1kbits/s speed=0.00862x elapsed=0:01:42.50    \nframe=  107 fps=1.0 q=21.0 size=       1KiB time=00:00:00.88 bitrate=   5.1kbits/s speed=0.00857x elapsed=0:01:43.01    \nframe=  107 fps=1.0 q=21.0 size=       1KiB time=00:00:00.88 bitrate=   5.1kbits/s speed=0.00853x elapsed=0:01:43.53    \nframe=  108 fps=1.0 q=17.0 size=       1KiB time=00:00:00.89 bitrate=   5.0kbits/s speed=0.00857x elapsed=0:01:44.04    \nframe=  109 fps=1.0 q=22.0 size=       1KiB time=00:00:00.90 bitrate=   5.0kbits/s speed=0.00861x elapsed=0:01:44.55    \nframe=  110 fps=1.0 q=17.0 size=       1KiB time=00:00:00.90 bitrate=   4.9kbits/s speed=0.00864x elapsed=0:01:45.07    \nframe=  111 fps=1.1 q=21.0 size=       1KiB time=00:00:00.91 bitrate=   4.9kbits/s speed=0.00868x elapsed=0:01:45.59    \nframe=  111 fps=1.0 q=21.0 size=       1KiB time=00:00:00.91 bitrate=   4.9kbits/s speed=0.00864x elapsed=0:01:46.10    \nframe=  113 fps=1.1 q=6.0 size=       1KiB time=00:00:00.93 bitrate=   4.8kbits/s speed=0.00875x elapsed=0:01:46.62    \nframe=  113 fps=1.1 q=6.0 size=       1KiB time=00:00:00.93 bitrate=   4.8kbits/s speed=0.00871x elapsed=0:01:47.15    \nframe=  114 fps=1.1 q=19.0 size=       1KiB time=00:00:00.94 bitrate=   4.8kbits/s speed=0.00875x elapsed=0:01:47.67    \nframe=  114 fps=1.1 q=19.0 size=       1KiB time=00:00:00.94 bitrate=   4.8kbits/s speed=0.0087x elapsed=0:01:48.18    \nframe=  114 fps=1.0 q=19.0 size=       1KiB time=00:00:00.94 bitrate=   4.8kbits/s speed=0.00866x elapsed=0:01:48.69    \nframe=  115 fps=1.1 q=21.0 size=       1KiB time=00:00:00.95 bitrate=   4.7kbits/s speed=0.0087x elapsed=0:01:49.21    \nframe=  115 fps=1.0 q=21.0 size=       1KiB time=00:00:00.95 bitrate=   4.7kbits/s speed=0.00866x elapsed=0:01:49.73    \nframe=  115 fps=1.0 q=21.0 size=       1KiB time=00:00:00.95 bitrate=   4.7kbits/s speed=0.00862x elapsed=0:01:50.25    \nframe=  116 fps=1.0 q=12.0 size=       1KiB time=00:00:00.95 bitrate=   4.7kbits/s speed=0.00865x elapsed=0:01:50.78    \nframe=  117 fps=1.1 q=24.0 size=       1KiB time=00:00:00.96 bitrate=   4.6kbits/s speed=0.00869x elapsed=0:01:51.29    \nframe=  118 fps=1.1 q=28.0 size=       1KiB time=00:00:00.97 bitrate=   4.6kbits/s speed=0.00872x elapsed=0:01:51.81    \nframe=  119 fps=1.1 q=21.0 size=       1KiB time=00:00:00.98 bitrate=   4.6kbits/s speed=0.00875x elapsed=0:01:52.34    \nframe=  119 fps=1.1 q=21.0 size=       1KiB time=00:00:00.98 bitrate=   4.6kbits/s speed=0.00871x elapsed=0:01:52.85    \nframe=  119 fps=1.0 q=21.0 size=       1KiB time=00:00:00.98 bitrate=   4.6kbits/s speed=0.00867x elapsed=0:01:53.37    \nframe=  121 fps=1.1 q=19.0 size=       1KiB time=00:00:01.00 bitrate=   4.5kbits/s speed=0.00878x elapsed=0:01:53.89    \nframe=  122 fps=1.1 q=19.0 size=       1KiB time=00:00:01.00 bitrate=   4.4kbits/s speed=0.00881x elapsed=0:01:54.41    \nframe=  122 fps=1.1 q=19.0 size=       1KiB time=00:00:01.00 bitrate=   4.4kbits/s speed=0.00877x elapsed=0:01:54.93    \nframe=  123 fps=1.1 q=21.0 size=       1KiB time=00:00:01.01 bitrate=   4.4kbits/s speed=0.00881x elapsed=0:01:55.45    \nframe=  123 fps=1.1 q=21.0 size=       1KiB time=00:00:01.01 bitrate=   4.4kbits/s speed=0.00877x elapsed=0:01:55.96    \nframe=  124 fps=1.1 q=19.0 size=       1KiB time=00:00:01.02 bitrate=   4.4kbits/s speed=0.0088x elapsed=0:01:56.48    \nframe=  124 fps=1.1 q=19.0 size=       1KiB time=00:00:01.02 bitrate=   4.4kbits/s speed=0.00876x elapsed=0:01:57.01    \nframe=  126 fps=1.1 q=19.0 size=       1KiB time=00:00:01.04 bitrate=   4.3kbits/s speed=0.00886x elapsed=0:01:57.52    \nframe=  127 fps=1.1 q=21.0 size=       1KiB time=00:00:01.04 bitrate=   4.3kbits/s speed=0.00882x elapsed=0:01:58.05    \nframe=  127 fps=1.1 q=21.0 size=       1KiB time=00:00:01.05 bitrate=   4.3kbits/s speed=0.00885x elapsed=0:01:58.57    \nframe=  128 fps=1.1 q=19.0 size=       1KiB time=00:00:01.05 bitrate=   4.2kbits/s speed=0.00889x elapsed=0:01:59.09    \nframe=  130 fps=1.1 q=19.0 size=       1KiB time=00:00:01.07 bitrate=   4.2kbits/s speed=0.00899x elapsed=0:01:59.60    \nframe=  130 fps=1.1 q=19.0 size=       1KiB time=00:00:01.07 bitrate=   4.2kbits/s speed=0.00895x elapsed=0:02:00.12    \nframe=  130 fps=1.1 q=19.0 size=       1KiB time=00:00:01.07 bitrate=   4.2kbits/s speed=0.00891x elapsed=0:02:00.64    \nframe=  131 fps=1.1 q=21.0 size=       1KiB time=00:00:01.08 bitrate=   4.1kbits/s speed=0.00894x elapsed=0:02:01.15    \nframe=  131 fps=1.1 q=21.0 size=       1KiB time=00:00:01.08 bitrate=   4.1kbits/s speed=0.0089x elapsed=0:02:01.67    \nframe=  131 fps=1.1 q=21.0 size=       1KiB time=00:00:01.08 bitrate=   4.1kbits/s speed=0.00887x elapsed=0:02:02.18    \nframe=  132 fps=1.1 q=12.0 size=       1KiB time=00:00:01.09 bitrate=   4.1kbits/s speed=0.0089x elapsed=0:02:02.70    \nframe=  133 fps=1.1 q=24.0 size=       1KiB time=00:00:01.10 bitrate=   4.1kbits/s speed=0.00893x elapsed=0:02:03.22    \nframe=  134 fps=1.1 q=28.0 size=       1KiB time=00:00:01.10 bitrate=   4.0kbits/s speed=0.00896x elapsed=0:02:03.75    \nframe=  134 fps=1.1 q=28.0 size=       1KiB time=00:00:01.10 bitrate=   4.0kbits/s speed=0.00892x elapsed=0:02:04.27    \nframe=  135 fps=1.1 q=20.0 size=       1KiB time=00:00:01.11 bitrate=   4.0kbits/s speed=0.00895x elapsed=0:02:04.80    \nframe=  135 fps=1.1 q=20.0 size=       1KiB time=00:00:01.11 bitrate=   4.0kbits/s speed=0.00891x elapsed=0:02:05.31    \nframe=  135 fps=1.1 q=20.0 size=       1KiB time=00:00:01.11 bitrate=   4.0kbits/s speed=0.00887x elapsed=0:02:05.83    \nframe=  136 fps=1.1 q=19.0 size=       1KiB time=00:00:01.12 bitrate=   4.0kbits/s speed=0.0089x elapsed=0:02:06.35    \nframe=  138 fps=1.1 q=21.0 size=       1KiB time=00:00:01.14 bitrate=   3.9kbits/s speed=0.009x elapsed=0:02:06.88    \nframe=  139 fps=1.1 q=22.0 size=       1KiB time=00:00:01.15 bitrate=   3.9kbits/s speed=0.00903x elapsed=0:02:07.40    \nframe=  139 fps=1.1 q=22.0 size=       1KiB time=00:00:01.15 bitrate=   3.9kbits/s speed=0.00899x elapsed=0:02:07.93    \nframe=  139 fps=1.1 q=22.0 size=       1KiB time=00:00:01.15 bitrate=   3.9kbits/s speed=0.00895x elapsed=0:02:08.44    \nframe=  140 fps=1.1 q=19.0 size=       1KiB time=00:00:01.15 bitrate=   3.9kbits/s speed=0.00898x elapsed=0:02:08.96    \nframe=  141 fps=1.1 q=22.0 size=       1KiB time=00:00:01.16 bitrate=   3.8kbits/s speed=0.00901x elapsed=0:02:09.48    \nframe=  143 fps=1.1 q=21.0 size=       1KiB time=00:00:01.18 bitrate=   3.8kbits/s speed=0.0091x elapsed=0:02:10.01    \nframe=  143 fps=1.1 q=21.0 size=       1KiB time=00:00:01.18 bitrate=   3.8kbits/s speed=0.00907x elapsed=0:02:10.53    \nframe=  144 fps=1.1 q=21.0 size=       1KiB time=00:00:01.19 bitrate=   3.8kbits/s speed=0.00909x elapsed=0:02:11.05    \nframe=  144 fps=1.1 q=21.0 size=       1KiB time=00:00:01.19 bitrate=   3.8kbits/s speed=0.00906x elapsed=0:02:11.57    \nframe=  147 fps=1.1 q=22.0 size=       1KiB time=00:00:01.21 bitrate=   3.7kbits/s speed=0.00921x elapsed=0:02:12.08    \nframe=  147 fps=1.1 q=22.0 size=       1KiB time=00:00:01.21 bitrate=   3.7kbits/s speed=0.00917x elapsed=0:02:12.61    \nframe=  148 fps=1.1 q=21.0 size=       1KiB time=00:00:01.22 bitrate=   3.7kbits/s speed=0.0092x elapsed=0:02:13.13    \nframe=  148 fps=1.1 q=21.0 size=       1KiB time=00:00:01.22 bitrate=   3.7kbits/s speed=0.00917x elapsed=0:02:13.63    \nframe=  149 fps=1.1 q=24.0 size=       1KiB time=00:00:01.23 bitrate=   3.6kbits/s speed=0.00919x elapsed=0:02:14.16    \nframe=  150 fps=1.1 q=20.0 size=       1KiB time=00:00:01.24 bitrate=   3.6kbits/s speed=0.00922x elapsed=0:02:14.66    \nframe=  150 fps=1.1 q=20.0 size=       1KiB time=00:00:01.24 bitrate=   3.6kbits/s speed=0.00918x elapsed=0:02:15.18    \nframe=  151 fps=1.1 q=20.0 size=       1KiB time=00:00:01.25 bitrate=   3.6kbits/s speed=0.00921x elapsed=0:02:15.70    \nframe=  151 fps=1.1 q=20.0 size=       1KiB time=00:00:01.25 bitrate=   3.6kbits/s speed=0.00918x elapsed=0:02:16.21    \nframe=  151 fps=1.1 q=20.0 size=       1KiB time=00:00:01.25 bitrate=   3.6kbits/s speed=0.00914x elapsed=0:02:16.74    \nframe=  152 fps=1.1 q=20.0 size=       1KiB time=00:00:01.25 bitrate=   3.6kbits/s speed=0.00917x elapsed=0:02:17.26    \nframe=  154 fps=1.1 q=21.0 size=       1KiB time=00:00:01.27 bitrate=   3.5kbits/s speed=0.00925x elapsed=0:02:17.78    \nframe=  154 fps=1.1 q=21.0 size=       1KiB time=00:00:01.27 bitrate=   3.5kbits/s speed=0.00922x elapsed=0:02:18.30    \nframe=  155 fps=1.1 q=22.0 size=       1KiB time=00:00:01.28 bitrate=   3.5kbits/s speed=0.00924x elapsed=0:02:18.81    \nframe=  155 fps=1.1 q=22.0 size=       1KiB time=00:00:01.28 bitrate=   3.5kbits/s speed=0.00921x elapsed=0:02:19.33    \nframe=  155 fps=1.1 q=22.0 size=       1KiB time=00:00:01.28 bitrate=   3.5kbits/s speed=0.00918x elapsed=0:02:19.84    \nframe=  156 fps=1.1 q=20.0 size=       1KiB time=00:00:01.29 bitrate=   3.5kbits/s speed=0.0092x elapsed=0:02:20.35    \nframe=  157 fps=1.1 q=22.0 size=       1KiB time=00:00:01.30 bitrate=   3.4kbits/s speed=0.00923x elapsed=0:02:20.87    \nframe=  159 fps=1.1 q=22.0 size=       1KiB time=00:00:01.31 bitrate=   3.4kbits/s speed=0.00931x elapsed=0:02:21.38    \nframe=  159 fps=1.1 q=22.0 size=       1KiB time=00:00:01.31 bitrate=   3.4kbits/s speed=0.00928x elapsed=0:02:21.90    \nframe=  160 fps=1.1 q=21.0 size=       1KiB time=00:00:01.32 bitrate=   3.4kbits/s speed=0.0093x elapsed=0:02:22.43    \nframe=  161 fps=1.1 q=7.0 size=       1KiB time=00:00:01.33 bitrate=   3.4kbits/s speed=0.00933x elapsed=0:02:22.95    \nframe=  163 fps=1.1 q=22.0 size=       1KiB time=00:00:01.35 bitrate=   3.3kbits/s speed=0.00941x elapsed=0:02:23.46    \nframe=  163 fps=1.1 q=22.0 size=       1KiB time=00:00:01.35 bitrate=   3.3kbits/s speed=0.00938x elapsed=0:02:23.98    \nframe=  163 fps=1.1 q=22.0 size=       1KiB time=00:00:01.35 bitrate=   3.3kbits/s speed=0.00934x elapsed=0:02:24.49    \nframe=  164 fps=1.1 q=21.0 size=       1KiB time=00:00:01.35 bitrate=   3.3kbits/s speed=0.00937x elapsed=0:02:25.01    \nframe=  165 fps=1.1 q=24.0 size=       1KiB time=00:00:01.36 bitrate=   3.3kbits/s speed=0.00939x elapsed=0:02:25.53    \nframe=  166 fps=1.1 q=21.0 size=       1KiB time=00:00:01.37 bitrate=   3.3kbits/s speed=0.00941x elapsed=0:02:26.05    \nframe=  166 fps=1.1 q=21.0 size=       1KiB time=00:00:01.37 bitrate=   3.3kbits/s speed=0.00938x elapsed=0:02:26.58    \nframe=  167 fps=1.1 q=22.0 size=       1KiB time=00:00:01.38 bitrate=   3.2kbits/s speed=0.0094x elapsed=0:02:27.11    \nframe=  167 fps=1.1 q=22.0 size=       1KiB time=00:00:01.38 bitrate=   3.2kbits/s speed=0.00937x elapsed=0:02:27.63    \nframe=  167 fps=1.1 q=22.0 size=       1KiB time=00:00:01.38 bitrate=   3.2kbits/s speed=0.00934x elapsed=0:02:28.15    \nframe=  168 fps=1.1 q=21.0 size=       1KiB time=00:00:01.39 bitrate=   3.2kbits/s speed=0.00936x elapsed=0:02:28.66    \nframe=  170 fps=1.1 q=21.0 size=       1KiB time=00:00:01.40 bitrate=   3.2kbits/s speed=0.00944x elapsed=0:02:29.18    \nframe=  171 fps=1.1 q=22.0 size=       1KiB time=00:00:01.41 bitrate=   3.2kbits/s speed=0.00946x elapsed=0:02:29.70    \nframe=  171 fps=1.1 q=22.0 size=       1KiB time=00:00:01.41 bitrate=   3.2kbits/s speed=0.00943x elapsed=0:02:30.22    \nframe=  171 fps=1.1 q=22.0 size=       1KiB time=00:00:01.41 bitrate=   3.2kbits/s speed=0.0094x elapsed=0:02:30.73    \nframe=  172 fps=1.1 q=19.0 size=       1KiB time=00:00:01.42 bitrate=   3.1kbits/s speed=0.00942x elapsed=0:02:31.25    \nframe=  173 fps=1.1 q=22.0 size=       1KiB time=00:00:01.43 bitrate=   3.1kbits/s speed=0.00944x elapsed=0:02:31.78    \nframe=  175 fps=1.1 q=21.0 size=       1KiB time=00:00:01.45 bitrate=   3.1kbits/s speed=0.00952x elapsed=0:02:32.31    \nframe=  175 fps=1.1 q=21.0 size=       1KiB time=00:00:01.45 bitrate=   3.1kbits/s speed=0.00949x elapsed=0:02:32.82    \nframe=  176 fps=1.1 q=21.0 size=       1KiB time=00:00:01.45 bitrate=   3.1kbits/s speed=0.00951x elapsed=0:02:33.34    \nframe=  177 fps=1.2 q=7.0 size=       1KiB time=00:00:01.46 bitrate=   3.1kbits/s speed=0.00953x elapsed=0:02:33.85    \nframe=  179 fps=1.2 q=22.0 size=       1KiB time=00:00:01.48 bitrate=   3.0kbits/s speed=0.00961x elapsed=0:02:34.38    \nframe=  179 fps=1.2 q=22.0 size=       1KiB time=00:00:01.48 bitrate=   3.0kbits/s speed=0.00958x elapsed=0:02:34.91    \nframe=  180 fps=1.2 q=21.0 size=       1KiB time=00:00:01.49 bitrate=   3.0kbits/s speed=0.0096x elapsed=0:02:35.44    \nframe=  181 fps=1.2 q=24.0 size=       1KiB time=00:00:01.50 bitrate=   3.0kbits/s speed=0.00962x elapsed=0:02:35.95    \nframe=  181 fps=1.2 q=24.0 size=       1KiB time=00:00:01.50 bitrate=   3.0kbits/s speed=0.00959x elapsed=0:02:36.47    \nframe=  182 fps=1.2 q=21.0 size=       1KiB time=00:00:01.50 bitrate=   3.0kbits/s speed=0.00961x elapsed=0:02:37.00    \nframe=  183 fps=1.2 q=22.0 size=       1KiB time=00:00:01.51 bitrate=   3.0kbits/s speed=0.00963x elapsed=0:02:37.51    \nframe=  183 fps=1.2 q=22.0 size=       1KiB time=00:00:01.51 bitrate=   3.0kbits/s speed=0.0096x elapsed=0:02:38.04    \nframe=  183 fps=1.2 q=22.0 size=       1KiB time=00:00:01.51 bitrate=   3.0kbits/s speed=0.00957x elapsed=0:02:38.55    \nframe=  184 fps=1.2 q=21.0 size=       1KiB time=00:00:01.52 bitrate=   2.9kbits/s speed=0.00959x elapsed=0:02:39.07    \nframe=  185 fps=1.2 q=18.0 size=       1KiB time=00:00:01.53 bitrate=   2.9kbits/s speed=0.00961x elapsed=0:02:39.60    \nframe=  186 fps=1.2 q=21.0 size=       1KiB time=00:00:01.54 bitrate=   2.9kbits/s speed=0.00963x elapsed=0:02:40.13    \nframe=  187 fps=1.2 q=21.0 size=       1KiB time=00:00:01.55 bitrate=   2.9kbits/s speed=0.00965x elapsed=0:02:40.63    \nframe=  187 fps=1.2 q=21.0 size=       1KiB time=00:00:01.55 bitrate=   2.9kbits/s speed=0.00962x elapsed=0:02:41.16    \nframe=  187 fps=1.2 q=21.0 size=       1KiB time=00:00:01.55 bitrate=   2.9kbits/s speed=0.00959x elapsed=0:02:41.66    \nframe=  188 fps=1.2 q=19.0 size=       1KiB time=00:00:01.55 bitrate=   2.9kbits/s speed=0.00961x elapsed=0:02:42.18    \nframe=  189 fps=1.2 q=22.0 size=       1KiB time=00:00:01.56 bitrate=   2.9kbits/s speed=0.00963x elapsed=0:02:42.70    \nframe=  190 fps=1.2 q=20.0 size=       1KiB time=00:00:01.57 bitrate=   2.8kbits/s speed=0.00965x elapsed=0:02:43.21    \nframe=  192 fps=1.2 q=20.0 size=       1KiB time=00:00:01.59 bitrate=   2.8kbits/s speed=0.00972x elapsed=0:02:43.73    \nframe=  192 fps=1.2 q=20.0 size=       1KiB time=00:00:01.59 bitrate=   2.8kbits/s speed=0.00969x elapsed=0:02:44.25    \nframe=  193 fps=1.2 q=7.0 size=       1KiB time=00:00:01.60 bitrate=   2.8kbits/s speed=0.00971x elapsed=0:02:44.76    \nframe=  194 fps=1.2 q=21.0 size=       1KiB time=00:00:01.60 bitrate=   2.8kbits/s speed=0.00973x elapsed=0:02:45.28    \nframe=  195 fps=1.2 q=22.0 size=       1KiB time=00:00:01.61 bitrate=   2.8kbits/s speed=0.00975x elapsed=0:02:45.81    \nframe=  195 fps=1.2 q=22.0 size=       1KiB time=00:00:01.61 bitrate=   2.8kbits/s speed=0.00972x elapsed=0:02:46.33    \nframe=  195 fps=1.2 q=22.0 size=       1KiB time=00:00:01.61 bitrate=   2.8kbits/s speed=0.00969x elapsed=0:02:46.86    \nframe=  195 fps=1.2 q=22.0 size=       1KiB time=00:00:01.61 bitrate=   2.8kbits/s speed=0.00966x elapsed=0:02:47.37    \nframe=  196 fps=1.2 q=21.0 size=       1KiB time=00:00:01.62 bitrate=   2.8kbits/s speed=0.00968x elapsed=0:02:47.90    \nframe=  197 fps=1.2 q=24.0 size=       1KiB time=00:00:01.63 bitrate=   2.7kbits/s speed=0.0097x elapsed=0:02:48.42    \nframe=  198 fps=1.2 q=20.0 size=       1KiB time=00:00:01.64 bitrate=   2.7kbits/s speed=0.00972x elapsed=0:02:48.94    \nframe=  199 fps=1.2 q=19.0 size=       1KiB time=00:00:01.65 bitrate=   2.7kbits/s speed=0.00974x elapsed=0:02:49.46    \nframe=  199 fps=1.2 q=19.0 size=       1KiB time=00:00:01.65 bitrate=   2.7kbits/s speed=0.00971x elapsed=0:02:49.97    \nframe=  200 fps=1.2 q=20.0 size=       1KiB time=00:00:01.65 bitrate=   2.7kbits/s speed=0.00973x elapsed=0:02:50.48    \nframe=  201 fps=1.2 q=18.0 size=       1KiB time=00:00:01.66 bitrate=   2.7kbits/s speed=0.00975x elapsed=0:02:51.00    \nframe=  203 fps=1.2 q=23.0 size=       1KiB time=00:00:01.68 bitrate=   2.7kbits/s speed=0.00981x elapsed=0:02:51.52    \nframe=  203 fps=1.2 q=23.0 size=       1KiB time=00:00:01.68 bitrate=   2.7kbits/s speed=0.00978x elapsed=0:02:52.05    \nframe=  203 fps=1.2 q=23.0 size=       1KiB time=00:00:01.68 bitrate=   2.7kbits/s speed=0.00975x elapsed=0:02:52.56    \nframe=  204 fps=1.2 q=22.0 size=       1KiB time=00:00:01.69 bitrate=   2.6kbits/s speed=0.00977x elapsed=0:02:53.07    \nframe=  205 fps=1.2 q=22.0 size=       1KiB time=00:00:01.70 bitrate=   2.6kbits/s speed=0.00979x elapsed=0:02:53.60    \nframe=  206 fps=1.2 q=20.0 size=       1KiB time=00:00:01.70 bitrate=   2.6kbits/s speed=0.00981x elapsed=0:02:54.13    \nframe=  207 fps=1.2 q=20.0 size=       1KiB time=00:00:01.71 bitrate=   2.6kbits/s speed=0.00983x elapsed=0:02:54.65    \nframe=  207 fps=1.2 q=20.0 size=       1KiB time=00:00:01.71 bitrate=   2.6kbits/s speed=0.0098x elapsed=0:02:55.16    \nframe=  208 fps=1.2 q=20.0 size=       1KiB time=00:00:01.72 bitrate=   2.6kbits/s speed=0.00982x elapsed=0:02:55.68    \nframe=  210 fps=1.2 q=21.0 size=       1KiB time=00:00:01.74 bitrate=   2.6kbits/s speed=0.00988x elapsed=0:02:56.20    \nframe=  210 fps=1.2 q=21.0 size=       1KiB time=00:00:01.74 bitrate=   2.6kbits/s speed=0.00985x elapsed=0:02:56.73    \nframe=  211 fps=1.2 q=22.0 size=       1KiB time=00:00:01.75 bitrate=   2.6kbits/s speed=0.00987x elapsed=0:02:57.24    \nframe=  212 fps=1.2 q=21.0 size=       1KiB time=00:00:01.75 bitrate=   2.5kbits/s speed=0.00989x elapsed=0:02:57.76    \nframe=  213 fps=1.2 q=24.0 size=       1KiB time=00:00:01.76 bitrate=   2.5kbits/s speed=0.00991x elapsed=0:02:58.28    \nframe=  214 fps=1.2 q=21.0 size=       1KiB time=00:00:01.77 bitrate=   2.5kbits/s speed=0.00993x elapsed=0:02:58.80    \nframe=  215 fps=1.2 q=22.0 size=       1KiB time=00:00:01.78 bitrate=   2.5kbits/s speed=0.00995x elapsed=0:02:59.30    \nframe=  215 fps=1.2 q=22.0 size=       1KiB time=00:00:01.78 bitrate=   2.5kbits/s speed=0.00992x elapsed=0:02:59.83    \nframe=  215 fps=1.2 q=22.0 size=       1KiB time=00:00:01.78 bitrate=   2.5kbits/s speed=0.00989x elapsed=0:03:00.35    \nframe=  217 fps=1.2 q=20.0 size=       1KiB time=00:00:01.80 bitrate=   2.5kbits/s speed=0.00995x elapsed=0:03:00.87    \nframe=  218 fps=1.2 q=21.0 size=       1KiB time=00:00:01.80 bitrate=   2.5kbits/s speed=0.00997x elapsed=0:03:01.39    \nframe=  219 fps=1.2 q=21.0 size=       1KiB time=00:00:01.81 bitrate=   2.5kbits/s speed=0.00999x elapsed=0:03:01.90    \nframe=  219 fps=1.2 q=21.0 size=       1KiB time=00:00:01.81 bitrate=   2.5kbits/s speed=0.00996x elapsed=0:03:02.41    \nframe=  220 fps=1.2 q=20.0 size=       1KiB time=00:00:01.82 bitrate=   2.5kbits/s speed=0.00998x elapsed=0:03:02.93    \nframe=  220 fps=1.2 q=20.0 size=       1KiB time=00:00:01.82 bitrate=   2.5kbits/s speed=0.00995x elapsed=0:03:03.45    \nframe=  222 fps=1.2 q=21.0 size=       1KiB time=00:00:01.84 bitrate=   2.4kbits/s speed=0.01x elapsed=0:03:03.96    \nframe=  223 fps=1.2 q=22.0 size=       1KiB time=00:00:01.85 bitrate=   2.4kbits/s speed=0.01x elapsed=0:03:04.48    \nframe=  224 fps=1.2 q=21.0 size=       1KiB time=00:00:01.85 bitrate=   2.4kbits/s speed=0.01x elapsed=0:03:05.00    \nframe=  225 fps=1.2 q=7.0 size=       1KiB time=00:00:01.86 bitrate=   2.4kbits/s speed=0.0101x elapsed=0:03:05.51    \nframe=  226 fps=1.2 q=21.0 size=       1KiB time=00:00:01.87 bitrate=   2.4kbits/s speed=0.0101x elapsed=0:03:06.03    \nframe=  227 fps=1.2 q=22.0 size=       1KiB time=00:00:01.88 bitrate=   2.4kbits/s speed=0.0101x elapsed=0:03:06.55    \nframe=  227 fps=1.2 q=22.0 size=       1KiB time=00:00:01.88 bitrate=   2.4kbits/s speed=0.0101x elapsed=0:03:07.08    \nframe=  227 fps=1.2 q=22.0 size=       1KiB time=00:00:01.88 bitrate=   2.4kbits/s speed=0.01x elapsed=0:03:07.60    \nframe=  228 fps=1.2 q=21.0 size=       1KiB time=00:00:01.89 bitrate=   2.4kbits/s speed=0.0101x elapsed=0:03:08.12    \nframe=  229 fps=1.2 q=24.0 size=       1KiB time=00:00:01.90 bitrate=   2.4kbits/s speed=0.0101x elapsed=0:03:08.64    \nframe=  230 fps=1.2 q=20.0 size=       1KiB time=00:00:01.90 bitrate=   2.3kbits/s speed=0.0101x elapsed=0:03:09.15    \nframe=  231 fps=1.2 q=19.0 size=       1KiB time=00:00:01.91 bitrate=   2.3kbits/s speed=0.0101x elapsed=0:03:09.68    \nframe=  231 fps=1.2 q=19.0 size=       1KiB time=00:00:01.91 bitrate=   2.3kbits/s speed=0.0101x elapsed=0:03:10.20    \nframe=  231 fps=1.2 q=19.0 size=       1KiB time=00:00:01.91 bitrate=   2.3kbits/s speed=0.01x elapsed=0:03:10.71    \nframe=  233 fps=1.2 q=20.0 size=       1KiB time=00:00:01.93 bitrate=   2.3kbits/s speed=0.0101x elapsed=0:03:11.24    \nframe=  234 fps=1.2 q=22.0 size=       1KiB time=00:00:01.94 bitrate=   2.3kbits/s speed=0.0101x elapsed=0:03:11.76    \nframe=  235 fps=1.2 q=23.0 size=       1KiB time=00:00:01.95 bitrate=   2.3kbits/s speed=0.0101x elapsed=0:03:12.27    \nframe=  235 fps=1.2 q=23.0 size=       1KiB time=00:00:01.95 bitrate=   2.3kbits/s speed=0.0101x elapsed=0:03:12.79    \nframe=  235 fps=1.2 q=23.0 size=       1KiB time=00:00:01.95 bitrate=   2.3kbits/s speed=0.0101x elapsed=0:03:13.31    \nframe=  236 fps=1.2 q=22.0 size=       1KiB time=00:00:01.95 bitrate=   2.3kbits/s speed=0.0101x elapsed=0:03:13.84    \nframe=  237 fps=1.2 q=22.0 size=       1KiB time=00:00:01.96 bitrate=   2.3kbits/s speed=0.0101x elapsed=0:03:14.36    \nframe=  238 fps=1.2 q=21.0 size=       1KiB time=00:00:01.97 bitrate=   2.3kbits/s speed=0.0101x elapsed=0:03:14.89    \nframe=  239 fps=1.2 q=21.0 size=       1KiB time=00:00:01.98 bitrate=   2.3kbits/s speed=0.0101x elapsed=0:03:15.42    \nframe=  239 fps=1.2 q=21.0 size=       1KiB time=00:00:01.98 bitrate=   2.3kbits/s speed=0.0101x elapsed=0:03:15.95    \nframe=  241 fps=1.2 q=7.0 size=       1KiB time=00:00:02.00 bitrate=   2.2kbits/s speed=0.0102x elapsed=0:03:16.48    \nframe=  242 fps=1.2 q=21.0 size=       1KiB time=00:00:02.00 bitrate=   2.2kbits/s speed=0.0102x elapsed=0:03:17.00    \nframe=  242 fps=1.2 q=21.0 size=       1KiB time=00:00:02.00 bitrate=   2.2kbits/s speed=0.0102x elapsed=0:03:17.51    \nframe=  243 fps=1.2 q=22.0 size=       1KiB time=00:00:02.01 bitrate=   2.2kbits/s speed=0.0102x elapsed=0:03:18.03    \nframe=  243 fps=1.2 q=22.0 size=       1KiB time=00:00:02.01 bitrate=   2.2kbits/s speed=0.0102x elapsed=0:03:18.54    \nframe=  244 fps=1.2 q=14.0 size=       1KiB time=00:00:02.02 bitrate=   2.2kbits/s speed=0.0102x elapsed=0:03:19.06    \nframe=  245 fps=1.2 q=24.0 size=       1KiB time=00:00:02.03 bitrate=   2.2kbits/s speed=0.0102x elapsed=0:03:19.57    \nframe=  246 fps=1.2 q=25.0 size=       1KiB time=00:00:02.04 bitrate=   2.2kbits/s speed=0.0102x elapsed=0:03:20.09    \nframe=  246 fps=1.2 q=25.0 size=       1KiB time=00:00:02.04 bitrate=   2.2kbits/s speed=0.0102x elapsed=0:03:20.60    \nframe=  247 fps=1.2 q=21.0 size=       1KiB time=00:00:02.05 bitrate=   2.2kbits/s speed=0.0102x elapsed=0:03:21.12    \nframe=  247 fps=1.2 q=21.0 size=       1KiB time=00:00:02.05 bitrate=   2.2kbits/s speed=0.0102x elapsed=0:03:21.65    \nframe=  247 fps=1.2 q=21.0 size=       1KiB time=00:00:02.05 bitrate=   2.2kbits/s speed=0.0101x elapsed=0:03:22.17    \nframe=  249 fps=1.2 q=21.0 size=       1KiB time=00:00:02.06 bitrate=   2.2kbits/s speed=0.0102x elapsed=0:03:22.68    \nframe=  250 fps=1.2 q=22.0 size=       1KiB time=00:00:02.07 bitrate=   2.2kbits/s speed=0.0102x elapsed=0:03:23.20    \nframe=  250 fps=1.2 q=22.0 size=       1KiB time=00:00:02.07 bitrate=   2.2kbits/s speed=0.0102x elapsed=0:03:23.71    \nframe=  251 fps=1.2 q=22.0 size=       1KiB time=00:00:02.08 bitrate=   2.2kbits/s speed=0.0102x elapsed=0:03:24.23    \nframe=  251 fps=1.2 q=22.0 size=       1KiB time=00:00:02.08 bitrate=   2.2kbits/s speed=0.0102x elapsed=0:03:24.76    \nframe=  252 fps=1.2 q=22.0 size=       1KiB time=00:00:02.09 bitrate=   2.1kbits/s speed=0.0102x elapsed=0:03:25.28    \nframe=  253 fps=1.2 q=22.0 size=       1KiB time=00:00:02.10 bitrate=   2.1kbits/s speed=0.0102x elapsed=0:03:25.79    \nframe=  254 fps=1.2 q=22.0 size=       1KiB time=00:00:02.10 bitrate=   2.1kbits/s speed=0.0102x elapsed=0:03:26.32    \nframe=  255 fps=1.2 q=22.0 size=       1KiB time=00:00:02.11 bitrate=   2.1kbits/s speed=0.0102x elapsed=0:03:26.83    \nframe=  256 fps=1.2 q=22.0 size=       1KiB time=00:00:02.12 bitrate=   2.1kbits/s speed=0.0102x elapsed=0:03:27.36    \nframe=  258 fps=1.2 q=23.0 size=       1KiB time=00:00:02.14 bitrate=   2.1kbits/s speed=0.0103x elapsed=0:03:27.87    \nframe=  258 fps=1.2 q=23.0 size=       1KiB time=00:00:02.14 bitrate=   2.1kbits/s speed=0.0103x elapsed=0:03:28.40    \nframe=  259 fps=1.2 q=23.0 size=       1KiB time=00:00:02.15 bitrate=   2.1kbits/s speed=0.0103x elapsed=0:03:28.93    \nframe=  259 fps=1.2 q=23.0 size=       1KiB time=00:00:02.15 bitrate=   2.1kbits/s speed=0.0103x elapsed=0:03:29.45    \nframe=  259 fps=1.2 q=23.0 size=       1KiB time=00:00:02.15 bitrate=   2.1kbits/s speed=0.0102x elapsed=0:03:29.98    \nframe=  260 fps=1.2 q=15.0 size=       1KiB time=00:00:02.15 bitrate=   2.1kbits/s speed=0.0103x elapsed=0:03:30.52    \nframe=  261 fps=1.2 q=24.0 size=       1KiB time=00:00:02.16 bitrate=   2.1kbits/s speed=0.0103x elapsed=0:03:31.04    \nframe=  262 fps=1.2 q=24.0 size=       1KiB time=00:00:02.17 bitrate=   2.1kbits/s speed=0.0103x elapsed=0:03:31.57    \nframe=  262 fps=1.2 q=24.0 size=       1KiB time=00:00:02.17 bitrate=   2.1kbits/s speed=0.0103x elapsed=0:03:32.11    \nframe=  263 fps=1.2 q=21.0 size=       1KiB time=00:00:02.18 bitrate=   2.1kbits/s speed=0.0103x elapsed=0:03:32.64    \nframe=  263 fps=1.2 q=21.0 size=       1KiB time=00:00:02.18 bitrate=   2.1kbits/s speed=0.0102x elapsed=0:03:33.18    \nframe=  263 fps=1.2 q=21.0 size=       1KiB time=00:00:02.18 bitrate=   2.1kbits/s speed=0.0102x elapsed=0:03:33.69    \nframe=  265 fps=1.2 q=21.0 size=       1KiB time=00:00:02.20 bitrate=   2.0kbits/s speed=0.0103x elapsed=0:03:34.24    \nframe=  266 fps=1.2 q=23.0 size=       1KiB time=00:00:02.20 bitrate=   2.0kbits/s speed=0.0103x elapsed=0:03:34.77    \nframe=  267 fps=1.2 q=23.0 size=       1KiB time=00:00:02.21 bitrate=   2.0kbits/s speed=0.0103x elapsed=0:03:35.31    \nframe=  267 fps=1.2 q=23.0 size=       1KiB time=00:00:02.21 bitrate=   2.0kbits/s speed=0.0103x elapsed=0:03:35.85    \nframe=  268 fps=1.2 q=22.0 size=       1KiB time=00:00:02.22 bitrate=   2.0kbits/s speed=0.0103x elapsed=0:03:36.37    \nframe=  269 fps=1.2 q=22.0 size=       1KiB time=00:00:02.23 bitrate=   2.0kbits/s speed=0.0103x elapsed=0:03:36.89    \nframe=  271 fps=1.2 q=24.0 size=       1KiB time=00:00:02.25 bitrate=   2.0kbits/s speed=0.0103x elapsed=0:03:37.40    \nframe=  272 fps=1.2 q=24.0 size=       1KiB time=00:00:02.25 bitrate=   2.0kbits/s speed=0.0104x elapsed=0:03:37.91    \nframe=  273 fps=1.2 q=7.0 size=       1KiB time=00:00:02.26 bitrate=   2.0kbits/s speed=0.0104x elapsed=0:03:38.43    \nframe=  275 fps=1.3 q=24.0 size=       1KiB time=00:00:02.28 bitrate=   2.0kbits/s speed=0.0104x elapsed=0:03:38.95    \nframe=  275 fps=1.3 q=24.0 size=       1KiB time=00:00:02.28 bitrate=   2.0kbits/s speed=0.0104x elapsed=0:03:39.48    \nframe=  275 fps=1.2 q=24.0 size=       1KiB time=00:00:02.28 bitrate=   2.0kbits/s speed=0.0104x elapsed=0:03:40.01    \nframe=  275 fps=1.2 q=24.0 size=       1KiB time=00:00:02.28 bitrate=   2.0kbits/s speed=0.0104x elapsed=0:03:40.54    \nframe=  276 fps=1.2 q=24.0 size=       1KiB time=00:00:02.29 bitrate=   2.0kbits/s speed=0.0104x elapsed=0:03:41.09    \nframe=  277 fps=1.2 q=24.0 size=       1KiB time=00:00:02.30 bitrate=   1.9kbits/s speed=0.0104x elapsed=0:03:41.63    \nframe=  278 fps=1.3 q=22.0 size=       1KiB time=00:00:02.30 bitrate=   1.9kbits/s speed=0.0104x elapsed=0:03:42.18    \nframe=  278 fps=1.2 q=22.0 size=       1KiB time=00:00:02.30 bitrate=   1.9kbits/s speed=0.0104x elapsed=0:03:42.73    \nframe=  278 fps=1.2 q=22.0 size=       1KiB time=00:00:02.30 bitrate=   1.9kbits/s speed=0.0103x elapsed=0:03:43.27    \nframe=  279 fps=1.2 q=20.0 size=       1KiB time=00:00:02.31 bitrate=   1.9kbits/s speed=0.0104x elapsed=0:03:43.80    \nframe=  279 fps=1.2 q=20.0 size=       1KiB time=00:00:02.31 bitrate=   1.9kbits/s speed=0.0103x elapsed=0:03:44.36    \nframe=  281 fps=1.2 q=20.0 size=       1KiB time=00:00:02.33 bitrate=   1.9kbits/s speed=0.0104x elapsed=0:03:44.91    \nframe=  282 fps=1.3 q=24.0 size=       1KiB time=00:00:02.34 bitrate=   1.9kbits/s speed=0.0104x elapsed=0:03:45.45    \nframe=  282 fps=1.2 q=24.0 size=       1KiB time=00:00:02.34 bitrate=   1.9kbits/s speed=0.0104x elapsed=0:03:46.00    \nframe=  283 fps=1.2 q=24.0 size=       1KiB time=00:00:02.35 bitrate=   1.9kbits/s speed=0.0104x elapsed=0:03:46.55    \nframe=  283 fps=1.2 q=24.0 size=       1KiB time=00:00:02.35 bitrate=   1.9kbits/s speed=0.0103x elapsed=0:03:47.11    \nframe=  284 fps=1.2 q=24.0 size=       1KiB time=00:00:02.35 bitrate=   1.9kbits/s speed=0.0104x elapsed=0:03:47.67    \nframe=  286 fps=1.3 q=24.0 size=       1KiB time=00:00:02.37 bitrate=   1.9kbits/s speed=0.0104x elapsed=0:03:48.22    \nframe=  287 fps=1.3 q=24.0 size=       1KiB time=00:00:02.38 bitrate=   1.9kbits/s speed=0.0104x elapsed=0:03:48.80    \nframe=  289 fps=1.3 q=7.0 size=       1KiB time=00:00:02.40 bitrate=   1.9kbits/s speed=0.0105x elapsed=0:03:49.36    \nframe=  290 fps=1.3 q=24.0 size=       1KiB time=00:00:02.40 bitrate=   1.9kbits/s speed=0.0105x elapsed=0:03:49.91    \nframe=  290 fps=1.3 q=24.0 size=       1KiB time=00:00:02.40 bitrate=   1.9kbits/s speed=0.0104x elapsed=0:03:50.48    \nframe=  291 fps=1.3 q=24.0 size=       1KiB time=00:00:02.41 bitrate=   1.9kbits/s speed=0.0105x elapsed=0:03:51.06    \nframe=  291 fps=1.3 q=24.0 size=       1KiB time=00:00:02.41 bitrate=   1.9kbits/s speed=0.0104x elapsed=0:03:51.62    \nframe=  292 fps=1.3 q=16.0 size=       1KiB time=00:00:02.42 bitrate=   1.8kbits/s speed=0.0104x elapsed=0:03:52.16    \nframe=  293 fps=1.3 q=24.0 size=       1KiB time=00:00:02.43 bitrate=   1.8kbits/s speed=0.0105x elapsed=0:03:52.72    \nframe=  294 fps=1.3 q=24.0 size=       1KiB time=00:00:02.44 bitrate=   1.8kbits/s speed=0.0105x elapsed=0:03:53.27    \nframe=  294 fps=1.3 q=24.0 size=       1KiB time=00:00:02.44 bitrate=   1.8kbits/s speed=0.0104x elapsed=0:03:53.80    \nframe=  295 fps=1.3 q=23.0 size=       1KiB time=00:00:02.45 bitrate=   1.8kbits/s speed=0.0105x elapsed=0:03:54.34    \nframe=  296 fps=1.3 q=24.0 size=       1KiB time=00:00:02.45 bitrate=   1.8kbits/s speed=0.0104x elapsed=0:03:54.89    \nframe=  296 fps=1.3 q=24.0 size=       1KiB time=00:00:02.45 bitrate=   1.8kbits/s speed=0.0104x elapsed=0:03:55.45    \nframe=  298 fps=1.3 q=25.0 size=       1KiB time=00:00:02.47 bitrate=   1.8kbits/s speed=0.0105x elapsed=0:03:55.99    \nframe=  299 fps=1.3 q=24.0 size=       1KiB time=00:00:02.48 bitrate=   1.8kbits/s speed=0.0105x elapsed=0:03:56.54    \nframe=  299 fps=1.3 q=24.0 size=       1KiB time=00:00:02.48 bitrate=   1.8kbits/s speed=0.0105x elapsed=0:03:57.10    \nframe=  300 fps=1.3 q=25.0 size=       1KiB time=00:00:02.49 bitrate=   1.8kbits/s speed=0.0105x elapsed=0:03:57.67    \nframe=  301 fps=1.3 q=22.0 size=       1KiB time=00:00:02.50 bitrate=   1.8kbits/s speed=0.0105x elapsed=0:03:58.22    \nframe=  303 fps=1.3 q=24.0 size=       1KiB time=00:00:02.51 bitrate=   1.8kbits/s speed=0.0105x elapsed=0:03:58.79    \nframe=  303 fps=1.3 q=24.0 size=       1KiB time=00:00:02.51 bitrate=   1.8kbits/s speed=0.0105x elapsed=0:03:59.35    \nframe=  304 fps=1.3 q=25.0 size=       1KiB time=00:00:02.52 bitrate=   1.8kbits/s speed=0.0105x elapsed=0:03:59.99    \nframe=  307 fps=1.3 q=25.0 size=       1KiB time=00:00:02.54 bitrate=   1.8kbits/s speed=0.0106x elapsed=0:04:00.60    \nframe=  309 fps=1.3 q=24.0 size=       1KiB time=00:00:02.55 bitrate=   1.8kbits/s speed=0.0106x elapsed=0:04:01.42    \nframe=  311 fps=1.3 q=25.0 size=       1KiB time=00:00:02.57 bitrate=   1.7kbits/s speed=0.0106x elapsed=0:04:02.50    \nframe=  312 fps=1.3 q=26.0 size=       1KiB time=00:00:02.59 bitrate=   1.7kbits/s speed=0.0106x elapsed=0:04:03.41    \nframe=  315 fps=1.3 q=24.0 size=       1KiB time=00:00:02.61 bitrate=   1.7kbits/s speed=0.0107x elapsed=0:04:04.18    \nframe=  315 fps=1.3 q=24.0 size=       1KiB time=00:00:02.61 bitrate=   1.7kbits/s speed=0.0107x elapsed=0:04:04.74    \nframe=  316 fps=1.3 q=25.0 size=       1KiB time=00:00:02.62 bitrate=   1.7kbits/s speed=0.0107x elapsed=0:04:05.35    \nframe=  319 fps=1.3 q=23.0 size=       1KiB time=00:00:02.64 bitrate=   1.7kbits/s speed=0.0107x elapsed=0:04:05.98    \nframe=  320 fps=1.3 q=24.0 size=       1KiB time=00:00:02.65 bitrate=   1.7kbits/s speed=0.0108x elapsed=0:04:06.70    \nframe=  321 fps=1.3 q=7.0 size=       1KiB time=00:00:02.66 bitrate=   1.7kbits/s speed=0.0108x elapsed=0:04:07.29    \nframe=  323 fps=1.3 q=25.0 size=       1KiB time=00:00:02.68 bitrate=   1.7kbits/s speed=0.0108x elapsed=0:04:07.90    \nframe=  325 fps=1.3 q=24.0 size=       1KiB time=00:00:02.69 bitrate=   1.7kbits/s speed=0.0108x elapsed=0:04:08.52    \nframe=  326 fps=1.3 q=26.0 size=       1KiB time=00:00:02.70 bitrate=   1.7kbits/s speed=0.0109x elapsed=0:04:09.17    \nframe=  327 fps=1.3 q=25.0 size=       1KiB time=00:00:02.71 bitrate=   1.6kbits/s speed=0.0109x elapsed=0:04:09.73    \nframe=  327 fps=1.3 q=25.0 size=       1KiB time=00:00:02.71 bitrate=   1.6kbits/s speed=0.0109x elapsed=0:04:10.29    \nframe=  330 fps=1.3 q=25.0 size=       1KiB time=00:00:02.74 bitrate=   1.6kbits/s speed=0.0109x elapsed=0:04:10.86    \nframe=  331 fps=1.3 q=24.0 size=       1KiB time=00:00:02.75 bitrate=   1.6kbits/s speed=0.0109x elapsed=0:04:11.37    \nframe=  332 fps=1.3 q=23.0 size=       1KiB time=00:00:02.75 bitrate=   1.6kbits/s speed=0.0109x elapsed=0:04:11.96    \nframe=  333 fps=1.3 q=21.0 size=       1KiB time=00:00:02.76 bitrate=   1.6kbits/s speed=0.011x elapsed=0:04:12.50    \nframe=  335 fps=1.3 q=23.0 size=       1KiB time=00:00:02.78 bitrate=   1.6kbits/s speed=0.011x elapsed=0:04:13.08    \nframe=  335 fps=1.3 q=23.0 size=       1KiB time=00:00:02.78 bitrate=   1.6kbits/s speed=0.011x elapsed=0:04:13.59    \nframe=  336 fps=1.3 q=25.0 size=       1KiB time=00:00:02.79 bitrate=   1.6kbits/s speed=0.011x elapsed=0:04:14.11    \nframe=  339 fps=1.3 q=25.0 size=       1KiB time=00:00:02.81 bitrate=   1.6kbits/s speed=0.0111x elapsed=0:04:14.62    \nframe=  339 fps=1.3 q=25.0 size=       1KiB time=00:00:02.81 bitrate=   1.6kbits/s speed=0.011x elapsed=0:04:15.14    \nframe=  339 fps=1.3 q=25.0 size=       1KiB time=00:00:02.81 bitrate=   1.6kbits/s speed=0.011x elapsed=0:04:15.65    \nframe=  342 fps=1.3 q=22.0 size=       1KiB time=00:00:02.84 bitrate=   1.6kbits/s speed=0.0111x elapsed=0:04:16.17    \nframe=  343 fps=1.3 q=18.0 size=       1KiB time=00:00:02.85 bitrate=   1.6kbits/s speed=0.0111x elapsed=0:04:16.68    \nframe=  343 fps=1.3 q=18.0 size=       1KiB time=00:00:02.85 bitrate=   1.6kbits/s speed=0.0111x elapsed=0:04:17.21    \nframe=  346 fps=1.3 q=26.0 size=       1KiB time=00:00:02.87 bitrate=   1.6kbits/s speed=0.0112x elapsed=0:04:17.72    \nframe=  347 fps=1.3 q=25.0 size=       1KiB time=00:00:02.88 bitrate=   1.6kbits/s speed=0.0112x elapsed=0:04:18.23    \nframe=  347 fps=1.3 q=25.0 size=       1KiB time=00:00:02.88 bitrate=   1.6kbits/s speed=0.0111x elapsed=0:04:18.74    \nframe=  348 fps=1.3 q=23.0 size=       1KiB time=00:00:02.89 bitrate=   1.5kbits/s speed=0.0112x elapsed=0:04:19.26    \nframe=  349 fps=1.3 q=21.0 size=       1KiB time=00:00:02.90 bitrate=   1.5kbits/s speed=0.0112x elapsed=0:04:19.79    \nframe=  351 fps=1.3 q=25.0 size=       1KiB time=00:00:02.91 bitrate=   1.5kbits/s speed=0.0112x elapsed=0:04:20.29    \nframe=  352 fps=1.3 q=26.0 size=       1KiB time=00:00:02.92 bitrate=   1.5kbits/s speed=0.0112x elapsed=0:04:20.81    \nframe=  353 fps=1.4 q=7.0 size=       1KiB time=00:00:02.93 bitrate=   1.5kbits/s speed=0.0112x elapsed=0:04:21.33    \nframe=  355 fps=1.4 q=26.0 size=       1KiB time=00:00:02.95 bitrate=   1.5kbits/s speed=0.0113x elapsed=0:04:21.83    \nframe=  356 fps=1.4 q=27.0 size=       1KiB time=00:00:02.95 bitrate=   1.5kbits/s speed=0.0113x elapsed=0:04:22.35    \nframe=  358 fps=1.4 q=27.0 size=       1KiB time=00:00:02.97 bitrate=   1.5kbits/s speed=0.0113x elapsed=0:04:22.88    \nframe=  358 fps=1.4 q=27.0 size=       1KiB time=00:00:02.97 bitrate=   1.5kbits/s speed=0.0113x elapsed=0:04:23.39    \nframe=  359 fps=1.4 q=26.0 size=       1KiB time=00:00:02.98 bitrate=   1.5kbits/s speed=0.0113x elapsed=0:04:23.90    \nframe=  360 fps=1.4 q=27.0 size=       1KiB time=00:00:02.99 bitrate=   1.5kbits/s speed=0.0113x elapsed=0:04:24.42    \nframe=  362 fps=1.4 q=25.0 size=       1KiB time=00:00:03.01 bitrate=   1.5kbits/s speed=0.0114x elapsed=0:04:24.94    \nframe=  363 fps=1.4 q=25.0 size=       1KiB time=00:00:03.01 bitrate=   1.5kbits/s speed=0.0114x elapsed=0:04:25.44    \nframe=  365 fps=1.4 q=22.0 size=       1KiB time=00:00:03.03 bitrate=   1.5kbits/s speed=0.0114x elapsed=0:04:25.96    \nframe=  366 fps=1.4 q=26.0 size=       1KiB time=00:00:03.04 bitrate=   1.5kbits/s speed=0.0114x elapsed=0:04:26.49    \nframe=  367 fps=1.4 q=24.0 size=       1KiB time=00:00:03.05 bitrate=   1.5kbits/s speed=0.0114x elapsed=0:04:27.00    \nframe=  368 fps=1.4 q=26.0 size=       1KiB time=00:00:03.05 bitrate=   1.5kbits/s speed=0.0114x elapsed=0:04:27.51    \nframe=  370 fps=1.4 q=27.0 size=       1KiB time=00:00:03.07 bitrate=   1.5kbits/s speed=0.0115x elapsed=0:04:28.03    \nframe=  370 fps=1.4 q=27.0 size=       1KiB time=00:00:03.07 bitrate=   1.5kbits/s speed=0.0115x elapsed=0:04:28.54    \nframe=  373 fps=1.4 q=24.0 size=       1KiB time=00:00:03.10 bitrate=   1.4kbits/s speed=0.0115x elapsed=0:04:29.06    \nframe=  374 fps=1.4 q=27.0 size=       1KiB time=00:00:03.10 bitrate=   1.4kbits/s speed=0.0115x elapsed=0:04:29.58    \nframe=  374 fps=1.4 q=27.0 size=       1KiB time=00:00:03.10 bitrate=   1.4kbits/s speed=0.0115x elapsed=0:04:30.09    \nframe=  375 fps=1.4 q=26.0 size=       1KiB time=00:00:03.11 bitrate=   1.4kbits/s speed=0.0115x elapsed=0:04:30.61    \nframe=  375 fps=1.4 q=26.0 size=       1KiB time=00:00:03.11 bitrate=   1.4kbits/s speed=0.0115x elapsed=0:04:31.13    \nframe=  377 fps=1.4 q=20.0 size=       1KiB time=00:00:03.13 bitrate=   1.4kbits/s speed=0.0115x elapsed=0:04:31.63    \nframe=  379 fps=1.4 q=25.0 size=       1KiB time=00:00:03.15 bitrate=   1.4kbits/s speed=0.0116x elapsed=0:04:32.16    \nframe=  380 fps=1.4 q=26.0 size=       1KiB time=00:00:03.15 bitrate=   1.4kbits/s speed=0.0116x elapsed=0:04:32.67    \nframe=  380 fps=1.4 q=26.0 size=       1KiB time=00:00:03.15 bitrate=   1.4kbits/s speed=0.0116x elapsed=0:04:33.18    \nframe=  381 fps=1.4 q=22.0 size=       1KiB time=00:00:03.16 bitrate=   1.4kbits/s speed=0.0116x elapsed=0:04:33.70    \nframe=  383 fps=1.4 q=24.0 size=       1KiB time=00:00:03.18 bitrate=   1.4kbits/s speed=0.0116x elapsed=0:04:34.21    \nframe=  385 fps=1.4 q=8.0 size=       1KiB time=00:00:03.20 bitrate=   1.4kbits/s speed=0.0116x elapsed=0:04:34.74    \nframe=  387 fps=1.4 q=26.0 size=       1KiB time=00:00:03.21 bitrate=   1.4kbits/s speed=0.0117x elapsed=0:04:35.25    \nframe=  388 fps=1.4 q=27.0 size=       1KiB time=00:00:03.22 bitrate=   1.4kbits/s speed=0.0117x elapsed=0:04:35.76    \nframe=  390 fps=1.4 q=27.0 size=       1KiB time=00:00:03.24 bitrate=   1.4kbits/s speed=0.0117x elapsed=0:04:36.27    \nframe=  390 fps=1.4 q=27.0 size=       1KiB time=00:00:03.24 bitrate=   1.4kbits/s speed=0.0117x elapsed=0:04:36.79    \nframe=  391 fps=1.4 q=26.0 size=       1KiB time=00:00:03.25 bitrate=   1.4kbits/s speed=0.0117x elapsed=0:04:37.31    \nframe=  392 fps=1.4 q=27.0 size=       1KiB time=00:00:03.25 bitrate=   1.4kbits/s speed=0.0117x elapsed=0:04:37.82    \nframe=  395 fps=1.4 q=25.0 size=       1KiB time=00:00:03.28 bitrate=   1.4kbits/s speed=0.0118x elapsed=0:04:38.34    \nframe=  395 fps=1.4 q=25.0 size=       1KiB time=00:00:03.28 bitrate=   1.4kbits/s speed=0.0118x elapsed=0:04:38.85    \nframe=  397 fps=1.4 q=22.0 size=    5120KiB time=00:00:03.30 bitrate=12710.0kbits/s speed=0.0118x elapsed=0:04:39.37    \nframe=  399 fps=1.4 q=24.0 size=    5120KiB time=00:00:03.31 bitrate=12646.1kbits/s speed=0.0119x elapsed=0:04:39.88    \nframe=  399 fps=1.4 q=24.0 size=    5120KiB time=00:00:03.31 bitrate=12646.1kbits/s speed=0.0118x elapsed=0:04:40.40    \nframe=  401 fps=1.4 q=8.0 size=    5120KiB time=00:00:03.33 bitrate=12582.9kbits/s speed=0.0119x elapsed=0:04:40.92    \nframe=  402 fps=1.4 q=27.0 size=    5120KiB time=00:00:03.34 bitrate=12551.5kbits/s speed=0.0119x elapsed=0:04:41.44    \nframe=  403 fps=1.4 q=26.0 size=    5120KiB time=00:00:03.35 bitrate=12520.3kbits/s speed=0.0119x elapsed=0:04:41.95    \nframe=  405 fps=1.4 q=24.0 size=    5120KiB time=00:00:03.36 bitrate=12458.3kbits/s speed=0.0119x elapsed=0:04:42.47    \nframe=  406 fps=1.4 q=27.0 size=    5120KiB time=00:00:03.37 bitrate=12427.6kbits/s speed=0.0119x elapsed=0:04:42.98    \nframe=  406 fps=1.4 q=27.0 size=    5120KiB time=00:00:03.37 bitrate=12427.6kbits/s speed=0.0119x elapsed=0:04:43.49    \nframe=  407 fps=1.4 q=26.0 size=    5120KiB time=00:00:03.38 bitrate=12397.0kbits/s speed=0.0119x elapsed=0:04:44.01    \nframe=  407 fps=1.4 q=26.0 size=    5120KiB time=00:00:03.38 bitrate=12397.0kbits/s speed=0.0119x elapsed=0:04:44.52    \nframe=  408 fps=1.4 q=27.0 size=    5120KiB time=00:00:03.39 bitrate=12366.5kbits/s speed=0.0119x elapsed=0:04:45.04    \nframe=  410 fps=1.4 q=26.0 size=    5120KiB time=00:00:03.40 bitrate=12306.0kbits/s speed=0.0119x elapsed=0:04:45.56    \nframe=  411 fps=1.4 q=25.0 size=    5120KiB time=00:00:03.41 bitrate=12276.0kbits/s speed=0.0119x elapsed=0:04:46.08    \nframe=  411 fps=1.4 q=25.0 size=    5120KiB time=00:00:03.41 bitrate=12276.0kbits/s speed=0.0119x elapsed=0:04:46.59    \nframe=  412 fps=1.4 q=26.0 size=    5120KiB time=00:00:03.42 bitrate=12246.1kbits/s speed=0.0119x elapsed=0:04:47.11    \nframe=  413 fps=1.4 q=22.0 size=    5120KiB time=00:00:03.43 bitrate=12216.4kbits/s speed=0.0119x elapsed=0:04:47.62    \nframe=  414 fps=1.4 q=26.0 size=    5120KiB time=00:00:03.44 bitrate=12186.8kbits/s speed=0.0119x elapsed=0:04:48.13    \nframe=  415 fps=1.4 q=24.0 size=    5120KiB time=00:00:03.45 bitrate=12157.4kbits/s speed=0.012x elapsed=0:04:48.65    \nframe=  415 fps=1.4 q=24.0 size=    5120KiB time=00:00:03.45 bitrate=12157.4kbits/s speed=0.0119x elapsed=0:04:49.17    \nframe=  417 fps=1.4 q=8.0 size=    5120KiB time=00:00:03.46 bitrate=12099.0kbits/s speed=0.012x elapsed=0:04:49.68    \nframe=  418 fps=1.4 q=27.0 size=    5120KiB time=00:00:03.47 bitrate=12069.9kbits/s speed=0.012x elapsed=0:04:50.20    \nframe=  419 fps=1.4 q=26.0 size=    5120KiB time=00:00:03.48 bitrate=12041.1kbits/s speed=0.012x elapsed=0:04:50.71    \nframe=  419 fps=1.4 q=26.0 size=    5120KiB time=00:00:03.48 bitrate=12041.1kbits/s speed=0.012x elapsed=0:04:51.24    \nframe=  421 fps=1.4 q=24.0 size=    5120KiB time=00:00:03.50 bitrate=11983.7kbits/s speed=0.012x elapsed=0:04:51.74    \nframe=  422 fps=1.4 q=27.0 size=    5120KiB time=00:00:03.50 bitrate=11955.3kbits/s speed=0.012x elapsed=0:04:52.27    \nframe=  422 fps=1.4 q=27.0 size=    5120KiB time=00:00:03.50 bitrate=11955.3kbits/s speed=0.012x elapsed=0:04:52.77    \nframe=  423 fps=1.4 q=26.0 size=    5120KiB time=00:00:03.51 bitrate=11926.9kbits/s speed=0.012x elapsed=0:04:53.30    \nframe=  423 fps=1.4 q=26.0 size=    5120KiB time=00:00:03.51 bitrate=11926.9kbits/s speed=0.012x elapsed=0:04:53.81    \nframe=  424 fps=1.4 q=27.0 size=    5120KiB time=00:00:03.52 bitrate=11898.7kbits/s speed=0.012x elapsed=0:04:54.32    \nframe=  426 fps=1.4 q=26.0 size=    5120KiB time=00:00:03.54 bitrate=11842.7kbits/s speed=0.012x elapsed=0:04:54.85    \nframe=  427 fps=1.4 q=25.0 size=    5120KiB time=00:00:03.55 bitrate=11814.9kbits/s speed=0.012x elapsed=0:04:55.36    \nframe=  427 fps=1.4 q=25.0 size=    5120KiB time=00:00:03.55 bitrate=11814.9kbits/s speed=0.012x elapsed=0:04:55.88    \nframe=  428 fps=1.4 q=24.0 size=    5120KiB time=00:00:03.55 bitrate=11787.3kbits/s speed=0.012x elapsed=0:04:56.39    \nframe=  429 fps=1.4 q=22.0 size=    5120KiB time=00:00:03.56 bitrate=11759.7kbits/s speed=0.012x elapsed=0:04:56.90    \nframe=  430 fps=1.4 q=26.0 size=    5120KiB time=00:00:03.57 bitrate=11732.3kbits/s speed=0.012x elapsed=0:04:57.41    \nframe=  431 fps=1.4 q=24.0 size=    5120KiB time=00:00:03.58 bitrate=11705.0kbits/s speed=0.012x elapsed=0:04:57.94    \nframe=  431 fps=1.4 q=24.0 size=    5120KiB time=00:00:03.58 bitrate=11705.0kbits/s speed=0.012x elapsed=0:04:58.45    \nframe=  431 fps=1.4 q=24.0 size=    5120KiB time=00:00:03.58 bitrate=11705.0kbits/s speed=0.012x elapsed=0:04:58.96    \nframe=  432 fps=1.4 q=26.0 size=    5120KiB time=00:00:03.59 bitrate=11677.9kbits/s speed=0.012x elapsed=0:04:59.48    \nframe=  433 fps=1.4 q=8.0 size=    5120KiB time=00:00:03.60 bitrate=11650.8kbits/s speed=0.012x elapsed=0:05:00.00    \nframe=  435 fps=1.4 q=26.0 size=    5120KiB time=00:00:03.61 bitrate=11597.2kbits/s speed=0.012x elapsed=0:05:00.51    \nframe=  435 fps=1.4 q=26.0 size=    5120KiB time=00:00:03.61 bitrate=11597.2kbits/s speed=0.012x elapsed=0:05:01.02    \nframe=  435 fps=1.4 q=26.0 size=    5120KiB time=00:00:03.61 bitrate=11597.2kbits/s speed=0.012x elapsed=0:05:01.54    \nframe=  436 fps=1.4 q=27.0 size=    5120KiB time=00:00:03.62 bitrate=11570.5kbits/s speed=0.012x elapsed=0:05:02.05    \nframe=  437 fps=1.4 q=24.0 size=    5120KiB time=00:00:03.63 bitrate=11544.0kbits/s speed=0.012x elapsed=0:05:02.58    \nframe=  438 fps=1.4 q=23.0 size=    5120KiB time=00:00:03.64 bitrate=11517.5kbits/s speed=0.012x elapsed=0:05:03.10    \nframe=  438 fps=1.4 q=23.0 size=    5120KiB time=00:00:03.64 bitrate=11517.5kbits/s speed=0.012x elapsed=0:05:03.60    \nframe=  439 fps=1.4 q=18.0 size=    5120KiB time=00:00:03.65 bitrate=11491.2kbits/s speed=0.012x elapsed=0:05:04.12    \nframe=  439 fps=1.4 q=18.0 size=    5120KiB time=00:00:03.65 bitrate=11491.2kbits/s speed=0.012x elapsed=0:05:04.63    \nframe=  440 fps=1.4 q=23.0 size=    5120KiB time=00:00:03.65 bitrate=11465.1kbits/s speed=0.012x elapsed=0:05:05.16    \nframe=  442 fps=1.4 q=26.0 size=    5120KiB time=00:00:03.67 bitrate=11413.1kbits/s speed=0.012x elapsed=0:05:05.67    \nframe=  443 fps=1.4 q=25.0 size=    5120KiB time=00:00:03.68 bitrate=11387.3kbits/s speed=0.012x elapsed=0:05:06.19    \nframe=  443 fps=1.4 q=25.0 size=    5120KiB time=00:00:03.68 bitrate=11387.3kbits/s speed=0.012x elapsed=0:05:06.70    \nframe=  444 fps=1.4 q=26.0 size=    5120KiB time=00:00:03.69 bitrate=11361.5kbits/s speed=0.012x elapsed=0:05:07.22    \nframe=  445 fps=1.4 q=22.0 size=    5120KiB time=00:00:03.70 bitrate=11336.0kbits/s speed=0.012x elapsed=0:05:07.73    \nframe=  446 fps=1.4 q=26.0 size=    5120KiB time=00:00:03.70 bitrate=11310.5kbits/s speed=0.012x elapsed=0:05:08.24    \nframe=  447 fps=1.4 q=24.0 size=    5120KiB time=00:00:03.71 bitrate=11285.1kbits/s speed=0.012x elapsed=0:05:08.77    \nframe=  447 fps=1.4 q=24.0 size=    5120KiB time=00:00:03.71 bitrate=11285.1kbits/s speed=0.012x elapsed=0:05:09.28    \nframe=  449 fps=1.4 q=8.0 size=    5120KiB time=00:00:03.73 bitrate=11234.7kbits/s speed=0.0121x elapsed=0:05:09.80    \nframe=  450 fps=1.5 q=27.0 size=    5120KiB time=00:00:03.74 bitrate=11209.7kbits/s speed=0.0121x elapsed=0:05:10.31    \nframe=  451 fps=1.5 q=26.0 size=    5120KiB time=00:00:03.75 bitrate=11184.8kbits/s speed=0.0121x elapsed=0:05:10.82    \nframe=  453 fps=1.5 q=24.0 size=    5120KiB time=00:00:03.76 bitrate=11135.3kbits/s speed=0.0121x elapsed=0:05:11.34    \nframe=  454 fps=1.5 q=27.0 size=    5120KiB time=00:00:03.77 bitrate=11110.7kbits/s speed=0.0121x elapsed=0:05:11.85    \nframe=  454 fps=1.5 q=27.0 size=    5120KiB time=00:00:03.77 bitrate=11110.7kbits/s speed=0.0121x elapsed=0:05:12.38    \nframe=  455 fps=1.5 q=26.0 size=    5120KiB time=00:00:03.78 bitrate=11086.3kbits/s speed=0.0121x elapsed=0:05:12.89    \nframe=  455 fps=1.5 q=26.0 size=    5120KiB time=00:00:03.78 bitrate=11086.3kbits/s speed=0.0121x elapsed=0:05:13.40    \nframe=  456 fps=1.5 q=27.0 size=    5120KiB time=00:00:03.79 bitrate=11061.9kbits/s speed=0.0121x elapsed=0:05:13.92    \nframe=  458 fps=1.5 q=26.0 size=    5120KiB time=00:00:03.80 bitrate=11013.5kbits/s speed=0.0121x elapsed=0:05:14.43    \nframe=  459 fps=1.5 q=25.0 size=    5120KiB time=00:00:03.81 bitrate=10989.4kbits/s speed=0.0121x elapsed=0:05:14.94    \nframe=  459 fps=1.5 q=25.0 size=    5120KiB time=00:00:03.81 bitrate=10989.4kbits/s speed=0.0121x elapsed=0:05:15.46    \nframe=  460 fps=1.5 q=26.0 size=    5120KiB time=00:00:03.82 bitrate=10965.5kbits/s speed=0.0121x elapsed=0:05:15.98    \nframe=  461 fps=1.5 q=22.0 size=    5120KiB time=00:00:03.83 bitrate=10941.7kbits/s speed=0.0121x elapsed=0:05:16.50    \nframe=  462 fps=1.5 q=26.0 size=    5120KiB time=00:00:03.84 bitrate=10917.9kbits/s speed=0.0121x elapsed=0:05:17.01    \nframe=  463 fps=1.5 q=24.0 size=    5120KiB time=00:00:03.85 bitrate=10894.3kbits/s speed=0.0121x elapsed=0:05:17.53    \nframe=  463 fps=1.5 q=24.0 size=    5120KiB time=00:00:03.85 bitrate=10894.3kbits/s speed=0.0121x elapsed=0:05:18.04    \nframe=  464 fps=1.5 q=26.0 size=    5120KiB time=00:00:03.85 bitrate=10870.8kbits/s speed=0.0121x elapsed=0:05:18.55    \nframe=  465 fps=1.5 q=8.0 size=    5120KiB time=00:00:03.86 bitrate=10847.3kbits/s speed=0.0121x elapsed=0:05:19.08    \nframe=  467 fps=1.5 q=26.0 size=    5120KiB time=00:00:03.88 bitrate=10800.8kbits/s speed=0.0122x elapsed=0:05:19.59    \nframe=  468 fps=1.5 q=27.0 size=    5120KiB time=00:00:03.89 bitrate=10777.7kbits/s speed=0.0122x elapsed=0:05:20.10    \nframe=  470 fps=1.5 q=27.0 size=    5120KiB time=00:00:03.90 bitrate=10731.7kbits/s speed=0.0122x elapsed=0:05:20.63    \nframe=  470 fps=1.5 q=27.0 size=    5120KiB time=00:00:03.90 bitrate=10731.7kbits/s speed=0.0122x elapsed=0:05:21.14    \nframe=  471 fps=1.5 q=26.0 size=    5120KiB time=00:00:03.91 bitrate=10708.9kbits/s speed=0.0122x elapsed=0:05:21.65    \nframe=  471 fps=1.5 q=26.0 size=    5120KiB time=00:00:03.91 bitrate=10708.9kbits/s speed=0.0122x elapsed=0:05:22.16    \nframe=  472 fps=1.5 q=27.0 size=    5120KiB time=00:00:03.92 bitrate=10686.1kbits/s speed=0.0122x elapsed=0:05:22.68    \nframe=  474 fps=1.5 q=26.0 size=    5120KiB time=00:00:03.94 bitrate=10640.9kbits/s speed=0.0122x elapsed=0:05:23.20    \nframe=  475 fps=1.5 q=25.0 size=    5120KiB time=00:00:03.95 bitrate=10618.5kbits/s speed=0.0122x elapsed=0:05:23.71    \nframe=  476 fps=1.5 q=26.0 size=    5120KiB time=00:00:03.95 bitrate=10618.5kbits/s speed=0.0122x elapsed=0:05:24.24    \nframe=  476 fps=1.5 q=26.0 size=    5120KiB time=00:00:03.95 bitrate=10596.1kbits/s speed=0.0122x elapsed=0:05:24.76    \nframe=  477 fps=1.5 q=23.0 size=    5120KiB time=00:00:03.96 bitrate=10573.9kbits/s speed=0.0122x elapsed=0:05:25.30    \nframe=  479 fps=1.5 q=23.0 size=    5120KiB time=00:00:03.98 bitrate=10529.6kbits/s speed=0.0122x elapsed=0:05:25.82    \nframe=  479 fps=1.5 q=23.0 size=    5120KiB time=00:00:03.98 bitrate=10529.6kbits/s speed=0.0122x elapsed=0:05:26.34    \nframe=  480 fps=1.5 q=25.0 size=    5120KiB time=00:00:03.99 bitrate=10507.7kbits/s speed=0.0122x elapsed=0:05:26.86    \nframe=  481 fps=1.5 q=8.0 size=    5120KiB time=00:00:04.00 bitrate=10485.8kbits/s speed=0.0122x elapsed=0:05:27.37    \nframe=  482 fps=1.5 q=27.0 size=    5120KiB time=00:00:04.00 bitrate=10464.0kbits/s speed=0.0122x elapsed=0:05:27.91    \nframe=  483 fps=1.5 q=26.0 size=    5120KiB time=00:00:04.01 bitrate=10442.2kbits/s speed=0.0122x elapsed=0:05:28.43    \nframe=  484 fps=1.5 q=27.0 size=    5120KiB time=00:00:04.02 bitrate=10420.6kbits/s speed=0.0122x elapsed=0:05:28.95    \nframe=  485 fps=1.5 q=24.0 size=    5120KiB time=00:00:04.03 bitrate=10399.1kbits/s speed=0.0122x elapsed=0:05:29.46    \nframe=  486 fps=1.5 q=27.0 size=    5120KiB time=00:00:04.04 bitrate=10377.7kbits/s speed=0.0122x elapsed=0:05:29.98    \nframe=  486 fps=1.5 q=27.0 size=    5120KiB time=00:00:04.04 bitrate=10377.7kbits/s speed=0.0122x elapsed=0:05:30.50    \nframe=  487 fps=1.5 q=26.0 size=    5120KiB time=00:00:04.05 bitrate=10356.3kbits/s speed=0.0122x elapsed=0:05:31.02    \nframe=  487 fps=1.5 q=26.0 size=    5120KiB time=00:00:04.05 bitrate=10356.3kbits/s speed=0.0122x elapsed=0:05:31.54    \nframe=  488 fps=1.5 q=27.0 size=    5120KiB time=00:00:04.05 bitrate=10335.0kbits/s speed=0.0122x elapsed=0:05:32.05    \nframe=  490 fps=1.5 q=26.0 size=    5120KiB time=00:00:04.07 bitrate=10292.8kbits/s speed=0.0123x elapsed=0:05:32.58    \nframe=  491 fps=1.5 q=25.0 size=    5120KiB time=00:00:04.08 bitrate=10271.8kbits/s speed=0.0123x elapsed=0:05:33.10    \nframe=  491 fps=1.5 q=25.0 size=    5120KiB time=00:00:04.08 bitrate=10271.8kbits/s speed=0.0122x elapsed=0:05:33.62    \nframe=  491 fps=1.5 q=25.0 size=    5120KiB time=00:00:04.08 bitrate=10271.8kbits/s speed=0.0122x elapsed=0:05:34.14    \nframe=  492 fps=1.5 q=26.0 size=    5120KiB time=00:00:04.09 bitrate=10250.8kbits/s speed=0.0122x elapsed=0:05:34.67    \nframe=  493 fps=1.5 q=22.0 size=    5120KiB time=00:00:04.10 bitrate=10230.0kbits/s speed=0.0122x elapsed=0:05:35.18    \nframe=  493 fps=1.5 q=22.0 size=    5120KiB time=00:00:04.10 bitrate=10230.0kbits/s speed=0.0122x elapsed=0:05:35.70    \nframe=  495 fps=1.5 q=23.0 size=    5120KiB time=00:00:04.11 bitrate=10188.6kbits/s speed=0.0122x elapsed=0:05:36.21    \nframe=  497 fps=1.5 q=9.0 size=    5120KiB time=00:00:04.13 bitrate=10147.5kbits/s speed=0.0123x elapsed=0:05:36.73    \nframe=  498 fps=1.5 q=27.0 size=    5120KiB time=00:00:04.14 bitrate=10127.1kbits/s speed=0.0123x elapsed=0:05:37.24    \nframe=  498 fps=1.5 q=27.0 size=    5120KiB time=00:00:04.14 bitrate=10127.1kbits/s speed=0.0123x elapsed=0:05:37.76    \nframe=  499 fps=1.5 q=26.0 size=    5120KiB time=00:00:04.15 bitrate=10106.8kbits/s speed=0.0123x elapsed=0:05:38.28    \nframe=  499 fps=1.5 q=26.0 size=    5120KiB time=00:00:04.15 bitrate=10106.8kbits/s speed=0.0122x elapsed=0:05:38.79    \nframe=  499 fps=1.5 q=26.0 size=    5120KiB time=00:00:04.15 bitrate=10106.8kbits/s speed=0.0122x elapsed=0:05:39.30    \nframe=  500 fps=1.5 q=18.0 size=    5120KiB time=00:00:04.15 bitrate=10086.5kbits/s speed=0.0122x elapsed=0:05:39.82    \nframe=  501 fps=1.5 q=24.0 size=    5120KiB time=00:00:04.16 bitrate=10066.3kbits/s speed=0.0122x elapsed=0:05:40.33    \nframe=  502 fps=1.5 q=23.0 size=    5120KiB time=00:00:04.17 bitrate=10046.2kbits/s speed=0.0122x elapsed=0:05:40.85    \nframe=  502 fps=1.5 q=23.0 size=    5120KiB time=00:00:04.17 bitrate=10046.2kbits/s speed=0.0122x elapsed=0:05:41.37    \nframe=  505 fps=1.5 q=19.0 size=    5120KiB time=00:00:04.20 bitrate=9986.4kbits/s speed=0.0123x elapsed=0:05:41.89    \nframe=  505 fps=1.5 q=19.0 size=    5120KiB time=00:00:04.20 bitrate=9986.4kbits/s speed=0.0123x elapsed=0:05:42.40    \nframe=  505 fps=1.5 q=19.0 size=    5120KiB time=00:00:04.20 bitrate=9986.4kbits/s speed=0.0122x elapsed=0:05:42.92    \nframe=  507 fps=1.5 q=25.0 size=    5120KiB time=00:00:04.21 bitrate=9947.0kbits/s speed=0.0123x elapsed=0:05:43.45    \nframe=  509 fps=1.5 q=23.0 size=    5120KiB time=00:00:04.23 bitrate=9907.8kbits/s speed=0.0123x elapsed=0:05:43.98    \nframe=  509 fps=1.5 q=23.0 size=    5120KiB time=00:00:04.23 bitrate=9907.8kbits/s speed=0.0123x elapsed=0:05:44.49    \nframe=  509 fps=1.5 q=23.0 size=    5120KiB time=00:00:04.23 bitrate=9907.8kbits/s speed=0.0123x elapsed=0:05:45.02    \nframe=  511 fps=1.5 q=24.0 size=    5120KiB time=00:00:04.25 bitrate=9869.0kbits/s speed=0.0123x elapsed=0:05:45.54    \nframe=  513 fps=1.5 q=8.0 size=    5120KiB time=00:00:04.26 bitrate=9830.4kbits/s speed=0.0123x elapsed=0:05:46.06    \nframe=  513 fps=1.5 q=8.0 size=    5120KiB time=00:00:04.26 bitrate=9830.4kbits/s speed=0.0123x elapsed=0:05:46.57    \nframe=  515 fps=1.5 q=26.0 size=    5120KiB time=00:00:04.28 bitrate=9792.2kbits/s speed=0.0123x elapsed=0:05:47.10    \nframe=  517 fps=1.5 q=24.0 size=    5120KiB time=00:00:04.30 bitrate=9754.2kbits/s speed=0.0124x elapsed=0:05:47.62    \nframe=  517 fps=1.5 q=24.0 size=    5120KiB time=00:00:04.30 bitrate=9754.2kbits/s speed=0.0124x elapsed=0:05:48.14    \nframe=  517 fps=1.5 q=24.0 size=    5120KiB time=00:00:04.30 bitrate=9754.2kbits/s speed=0.0123x elapsed=0:05:48.66    \nframe=  519 fps=1.5 q=18.0 size=    5120KiB time=00:00:04.31 bitrate=9716.5kbits/s speed=0.0124x elapsed=0:05:49.17    \nframe=  521 fps=1.5 q=20.0 size=    5120KiB time=00:00:04.33 bitrate=9679.2kbits/s speed=0.0124x elapsed=0:05:49.70    \nframe=  521 fps=1.5 q=20.0 size=    5120KiB time=00:00:04.33 bitrate=9679.2kbits/s speed=0.0124x elapsed=0:05:50.21    \nframe=  521 fps=1.5 q=20.0 size=    5120KiB time=00:00:04.33 bitrate=9679.2kbits/s speed=0.0124x elapsed=0:05:50.73    \nframe=  521 fps=1.5 q=20.0 size=    5120KiB time=00:00:04.33 bitrate=9679.2kbits/s speed=0.0123x elapsed=0:05:51.25    \nframe=  521 fps=1.5 q=20.0 size=    5120KiB time=00:00:04.33 bitrate=9679.2kbits/s speed=0.0123x elapsed=0:05:51.78    \nframe=  521 fps=1.5 q=20.0 size=    5120KiB time=00:00:04.33 bitrate=9679.2kbits/s speed=0.0123x elapsed=0:05:52.29    \nframe=  523 fps=1.5 q=25.0 size=    5120KiB time=00:00:04.35 bitrate=9642.1kbits/s speed=0.0123x elapsed=0:05:52.81    \nframe=  525 fps=1.5 q=23.0 size=    5120KiB time=00:00:04.36 bitrate=9605.3kbits/s speed=0.0124x elapsed=0:05:53.33    \nframe=  525 fps=1.5 q=23.0 size=    5120KiB time=00:00:04.36 bitrate=9605.3kbits/s speed=0.0123x elapsed=0:05:53.85    \nframe=  525 fps=1.5 q=23.0 size=    5120KiB time=00:00:04.36 bitrate=9605.3kbits/s speed=0.0123x elapsed=0:05:54.38    \nframe=  525 fps=1.5 q=23.0 size=    5120KiB time=00:00:04.36 bitrate=9605.3kbits/s speed=0.0123x elapsed=0:05:54.90    \nframe=  527 fps=1.5 q=23.0 size=    5120KiB time=00:00:04.38 bitrate=9568.8kbits/s speed=0.0123x elapsed=0:05:55.44    \nframe=  527 fps=1.5 q=23.0 size=    5120KiB time=00:00:04.38 bitrate=9568.8kbits/s speed=0.0123x elapsed=0:05:55.96    \nframe=  529 fps=1.5 q=9.0 size=    5120KiB time=00:00:04.40 bitrate=9532.5kbits/s speed=0.0123x elapsed=0:05:56.48    \nframe=  529 fps=1.5 q=9.0 size=    5120KiB time=00:00:04.40 bitrate=9532.5kbits/s speed=0.0123x elapsed=0:05:57.01    \nframe=  531 fps=1.5 q=26.0 size=    5120KiB time=00:00:04.41 bitrate=9496.5kbits/s speed=0.0124x elapsed=0:05:57.53    \nframe=  533 fps=1.5 q=24.0 size=    5120KiB time=00:00:04.43 bitrate=9460.8kbits/s speed=0.0124x elapsed=0:05:58.05    \nframe=  533 fps=1.5 q=24.0 size=    5120KiB time=00:00:04.43 bitrate=9460.8kbits/s speed=0.0124x elapsed=0:05:58.58    \nframe=  533 fps=1.5 q=24.0 size=    5120KiB time=00:00:04.43 bitrate=9460.8kbits/s speed=0.0123x elapsed=0:05:59.11    \nframe=  533 fps=1.5 q=24.0 size=    5120KiB time=00:00:04.43 bitrate=9460.8kbits/s speed=0.0123x elapsed=0:05:59.62    \nframe=  533 fps=1.5 q=24.0 size=    5120KiB time=00:00:04.43 bitrate=9460.8kbits/s speed=0.0123x elapsed=0:06:00.13    \nframe=  535 fps=1.5 q=18.0 size=    5120KiB time=00:00:04.45 bitrate=9425.4kbits/s speed=0.0123x elapsed=0:06:00.65    \nframe=  537 fps=1.5 q=19.0 size=    5120KiB time=00:00:04.46 bitrate=9390.2kbits/s speed=0.0124x elapsed=0:06:01.17    \nframe=  537 fps=1.5 q=19.0 size=    5120KiB time=00:00:04.46 bitrate=9390.2kbits/s speed=0.0123x elapsed=0:06:01.68    \nframe=  537 fps=1.5 q=19.0 size=    5120KiB time=00:00:04.46 bitrate=9390.2kbits/s speed=0.0123x elapsed=0:06:02.20    \nframe=  537 fps=1.5 q=19.0 size=    5120KiB time=00:00:04.46 bitrate=9390.2kbits/s speed=0.0123x elapsed=0:06:02.71    \nframe=  537 fps=1.5 q=19.0 size=    5120KiB time=00:00:04.46 bitrate=9390.2kbits/s speed=0.0123x elapsed=0:06:03.23    \nframe=  537 fps=1.5 q=19.0 size=    5120KiB time=00:00:04.46 bitrate=9390.2kbits/s speed=0.0123x elapsed=0:06:03.74    \nframe=  539 fps=1.5 q=25.0 size=    5120KiB time=00:00:04.48 bitrate=9355.3kbits/s speed=0.0123x elapsed=0:06:04.27    \nframe=  539 fps=1.5 q=25.0 size=    5120KiB time=00:00:04.48 bitrate=9355.3kbits/s speed=0.0123x elapsed=0:06:04.79    \nframe=  541 fps=1.5 q=23.0 size=    5120KiB time=00:00:04.50 bitrate=9320.7kbits/s speed=0.0123x elapsed=0:06:05.32    \nframe=  541 fps=1.5 q=23.0 size=    5120KiB time=00:00:04.50 bitrate=9320.7kbits/s speed=0.0123x elapsed=0:06:05.84    \nframe=  541 fps=1.5 q=23.0 size=    5120KiB time=00:00:04.50 bitrate=9320.7kbits/s speed=0.0123x elapsed=0:06:06.37    \nframe=  541 fps=1.5 q=23.0 size=    5120KiB time=00:00:04.50 bitrate=9320.7kbits/s speed=0.0123x elapsed=0:06:06.88    \nframe=  543 fps=1.5 q=23.0 size=    5120KiB time=00:00:04.51 bitrate=9286.3kbits/s speed=0.0123x elapsed=0:06:07.40    \nframe=  545 fps=1.5 q=9.0 size=    5120KiB time=00:00:04.53 bitrate=9252.1kbits/s speed=0.0123x elapsed=0:06:07.92    \nframe=  545 fps=1.5 q=9.0 size=    5120KiB time=00:00:04.53 bitrate=9252.1kbits/s speed=0.0123x elapsed=0:06:08.43    \nframe=  545 fps=1.5 q=9.0 size=    5120KiB time=00:00:04.53 bitrate=9252.1kbits/s speed=0.0123x elapsed=0:06:08.95    \nframe=  545 fps=1.5 q=9.0 size=    5120KiB time=00:00:04.53 bitrate=9252.1kbits/s speed=0.0123x elapsed=0:06:09.46    \nframe=  547 fps=1.5 q=26.0 size=    5120KiB time=00:00:04.55 bitrate=9218.3kbits/s speed=0.0123x elapsed=0:06:09.98    \nframe=  549 fps=1.5 q=24.0 size=    5120KiB time=00:00:04.56 bitrate=9184.6kbits/s speed=0.0123x elapsed=0:06:10.51    \nframe=  549 fps=1.5 q=24.0 size=    5120KiB time=00:00:04.56 bitrate=9184.6kbits/s speed=0.0123x elapsed=0:06:11.03    \nframe=  549 fps=1.5 q=24.0 size=    5120KiB time=00:00:04.56 bitrate=9184.6kbits/s speed=0.0123x elapsed=0:06:11.55    \nframe=  549 fps=1.5 q=24.0 size=    5120KiB time=00:00:04.56 bitrate=9184.6kbits/s speed=0.0123x elapsed=0:06:12.06    \nframe=  553 fps=1.5 q=18.0 size=    5120KiB time=00:00:04.60 bitrate=9118.1kbits/s speed=0.0123x elapsed=0:06:12.57    \nframe=  553 fps=1.5 q=18.0 size=    5120KiB time=00:00:04.60 bitrate=9118.1kbits/s speed=0.0123x elapsed=0:06:13.10    \nframe=  553 fps=1.5 q=18.0 size=    5120KiB time=00:00:04.60 bitrate=9118.1kbits/s speed=0.0123x elapsed=0:06:13.62    \nframe=  553 fps=1.5 q=18.0 size=    5120KiB time=00:00:04.60 bitrate=9118.1kbits/s speed=0.0123x elapsed=0:06:14.13    \nframe=  553 fps=1.5 q=18.0 size=    5120KiB time=00:00:04.60 bitrate=9118.1kbits/s speed=0.0123x elapsed=0:06:14.65    \nframe=  553 fps=1.5 q=18.0 size=    5120KiB time=00:00:04.60 bitrate=9118.1kbits/s speed=0.0123x elapsed=0:06:15.17    \nframe=  555 fps=1.5 q=25.0 size=    5120KiB time=00:00:04.61 bitrate=9085.1kbits/s speed=0.0123x elapsed=0:06:15.68    \nframe=  557 fps=1.5 q=22.0 size=    5120KiB time=00:00:04.63 bitrate=9052.5kbits/s speed=0.0123x elapsed=0:06:16.20    \nframe=  557 fps=1.5 q=22.0 size=    5120KiB time=00:00:04.63 bitrate=9052.5kbits/s speed=0.0123x elapsed=0:06:16.71    \nframe=  557 fps=1.5 q=22.0 size=    5120KiB time=00:00:04.63 bitrate=9052.5kbits/s speed=0.0123x elapsed=0:06:17.23    \nframe=  557 fps=1.5 q=22.0 size=    5120KiB time=00:00:04.63 bitrate=9052.5kbits/s speed=0.0123x elapsed=0:06:17.74    \nframe=  559 fps=1.5 q=22.0 size=    5120KiB time=00:00:04.65 bitrate=9020.0kbits/s speed=0.0123x elapsed=0:06:18.26    \nframe=  559 fps=1.5 q=22.0 size=    5120KiB time=00:00:04.65 bitrate=9020.0kbits/s speed=0.0123x elapsed=0:06:18.78    \nframe=  561 fps=1.5 q=9.0 size=    5120KiB time=00:00:04.66 bitrate=8987.8kbits/s speed=0.0123x elapsed=0:06:19.30    \nframe=  561 fps=1.5 q=9.0 size=    5120KiB time=00:00:04.66 bitrate=8987.8kbits/s speed=0.0123x elapsed=0:06:19.81    \nframe=  561 fps=1.5 q=9.0 size=    5120KiB time=00:00:04.66 bitrate=8987.8kbits/s speed=0.0123x elapsed=0:06:20.34    \nframe=  563 fps=1.5 q=25.0 size=    5120KiB time=00:00:04.68 bitrate=8955.8kbits/s speed=0.0123x elapsed=0:06:20.87    \nframe=  565 fps=1.5 q=23.0 size=    5120KiB time=00:00:04.70 bitrate=8924.1kbits/s speed=0.0123x elapsed=0:06:21.39    \nframe=  565 fps=1.5 q=23.0 size=    5120KiB time=00:00:04.70 bitrate=8924.1kbits/s speed=0.0123x elapsed=0:06:21.90    \nframe=  565 fps=1.5 q=23.0 size=    5120KiB time=00:00:04.70 bitrate=8924.1kbits/s speed=0.0123x elapsed=0:06:22.41    \nframe=  565 fps=1.5 q=23.0 size=    5120KiB time=00:00:04.70 bitrate=8924.1kbits/s speed=0.0123x elapsed=0:06:22.94    \nframe=  567 fps=1.5 q=17.0 size=    5120KiB time=00:00:04.71 bitrate=8892.5kbits/s speed=0.0123x elapsed=0:06:23.44    \nframe=  569 fps=1.5 q=18.0 size=    5120KiB time=00:00:04.73 bitrate=8861.2kbits/s speed=0.0123x elapsed=0:06:23.96    \nframe=  569 fps=1.5 q=18.0 size=    5120KiB time=00:00:04.73 bitrate=8861.2kbits/s speed=0.0123x elapsed=0:06:24.48    \nframe=  569 fps=1.5 q=18.0 size=    5120KiB time=00:00:04.73 bitrate=8861.2kbits/s speed=0.0123x elapsed=0:06:25.00    \nframe=  569 fps=1.5 q=18.0 size=    5120KiB time=00:00:04.73 bitrate=8861.2kbits/s speed=0.0123x elapsed=0:06:25.52    \nframe=  569 fps=1.5 q=18.0 size=    5120KiB time=00:00:04.73 bitrate=8861.2kbits/s speed=0.0123x elapsed=0:06:26.03    \nframe=  571 fps=1.5 q=23.0 size=    5120KiB time=00:00:04.75 bitrate=8830.1kbits/s speed=0.0123x elapsed=0:06:26.54    \nframe=  573 fps=1.5 q=20.0 size=    5120KiB time=00:00:04.76 bitrate=8799.2kbits/s speed=0.0123x elapsed=0:06:27.06    \nframe=  573 fps=1.5 q=20.0 size=    5120KiB time=00:00:04.76 bitrate=8799.2kbits/s speed=0.0123x elapsed=0:06:27.57    \nframe=  573 fps=1.5 q=20.0 size=    5120KiB time=00:00:04.76 bitrate=8799.2kbits/s speed=0.0123x elapsed=0:06:28.09    \nframe=  575 fps=1.5 q=27.0 size=    5120KiB time=00:00:04.78 bitrate=8768.6kbits/s speed=0.0123x elapsed=0:06:28.60    \nframe=  577 fps=1.5 q=8.0 size=    5120KiB time=00:00:04.80 bitrate=8738.1kbits/s speed=0.0123x elapsed=0:06:29.13    \nframe=  577 fps=1.5 q=8.0 size=    5120KiB time=00:00:04.80 bitrate=8738.1kbits/s speed=0.0123x elapsed=0:06:29.65    \nframe=  579 fps=1.5 q=26.0 size=    5120KiB time=00:00:04.81 bitrate=8707.9kbits/s speed=0.0123x elapsed=0:06:30.17    \nframe=  581 fps=1.5 q=27.0 size=    5120KiB time=00:00:04.83 bitrate=8677.9kbits/s speed=0.0124x elapsed=0:06:30.69    \nframe=  581 fps=1.5 q=27.0 size=    5120KiB time=00:00:04.83 bitrate=8677.9kbits/s speed=0.0124x elapsed=0:06:31.22    \nframe=  581 fps=1.5 q=27.0 size=    5120KiB time=00:00:04.83 bitrate=8677.9kbits/s speed=0.0123x elapsed=0:06:31.75    \nframe=  581 fps=1.5 q=27.0 size=    5120KiB time=00:00:04.83 bitrate=8677.9kbits/s speed=0.0123x elapsed=0:06:32.28    \nframe=  583 fps=1.5 q=26.0 size=    5120KiB time=00:00:04.85 bitrate=8648.0kbits/s speed=0.0123x elapsed=0:06:32.79    \nframe=  585 fps=1.5 q=21.0 size=    5120KiB time=00:00:04.86 bitrate=8618.4kbits/s speed=0.0124x elapsed=0:06:33.30    \nframe=  585 fps=1.5 q=21.0 size=    5120KiB time=00:00:04.86 bitrate=8618.4kbits/s speed=0.0124x elapsed=0:06:33.82    \nframe=  585 fps=1.5 q=21.0 size=    5120KiB time=00:00:04.86 bitrate=8618.4kbits/s speed=0.0123x elapsed=0:06:34.34    \nframe=  587 fps=1.5 q=26.0 size=    5120KiB time=00:00:04.88 bitrate=8589.0kbits/s speed=0.0124x elapsed=0:06:34.85    \nframe=  589 fps=1.5 q=27.0 size=    5120KiB time=00:00:04.90 bitrate=8559.8kbits/s speed=0.0124x elapsed=0:06:35.37    \nframe=  589 fps=1.5 q=27.0 size=    5120KiB time=00:00:04.90 bitrate=8559.8kbits/s speed=0.0124x elapsed=0:06:35.89    \nframe=  591 fps=1.5 q=26.0 size=    5120KiB time=00:00:04.91 bitrate=8530.8kbits/s speed=0.0124x elapsed=0:06:36.41    \n[out#0/matroska @ 000001f4ce3d93c0] video:7204KiB audio:0KiB subtitle:0KiB other streams:0KiB global headers:0KiB muxing overhead: 0.046318%\nframe=  600 fps=1.5 q=28.0 Lsize=    7208KiB time=00:00:04.99 bitrate=11828.8kbits/s speed=0.0126x elapsed=0:06:36.46    \n",
  "seconds": 400.6149024963379,
  "probe_out": {}
}